<?xml version="1.0" encoding="UTF-8" standalone="no"?>
<!DOCTYPE svg PUBLIC "-//W3C//DTD SVG 1.1//EN"
 "http://www.w3.org/Graphics/SVG/1.1/DTD/svg11.dtd">
<!-- Generated by graphviz version 2.40.1 (20161225.0304)
 -->
<!-- Title: dependencies Pages: 1 -->
<svg width="816pt" height="211pt"
 viewBox="0.00 0.00 816.00 211.00" xmlns="http://www.w3.org/2000/svg" xmlns:xlink="http://www.w3.org/1999/xlink">
<g id="graph0" class="graph" transform="scale(1 1) rotate(0) translate(4 207)">
<title>dependencies</title>
<polygon fill="#ffffff" stroke="transparent" points="-4,4 -4,-207 812,-207 812,4 -4,4"/>
<text text-anchor="start" x="383.0091" y="-42.4" font-family="sans-serif" font-weight="bold" font-size="14.00" fill="#000000">Legend</text>
<polygon fill="#ffffb3" stroke="transparent" points="170,-10 170,-30 190,-30 190,-10 170,-10"/>
<text text-anchor="start" x="193.629" y="-15.4" font-family="sans-serif" font-size="14.00" fill="#000000"> &#160;Declarations</text>
<polygon fill="#8dd3c7" stroke="transparent" points="283,-10 283,-30 303,-30 303,-10 283,-10"/>
<text text-anchor="start" x="306.7251" y="-15.4" font-family="sans-serif" font-size="14.00" fill="#000000"> &#160;Module</text>
<polygon fill="#80b1d3" stroke="transparent" points="369,-10 369,-30 389,-30 389,-10 369,-10"/>
<text text-anchor="start" x="392.7812" y="-15.4" font-family="sans-serif" font-size="14.00" fill="#000000"> &#160;Bootstrap</text>
<polygon fill="#fdb462" stroke="transparent" points="466,-10 466,-30 486,-30 486,-10 466,-10"/>
<text text-anchor="start" x="489.6732" y="-15.4" font-family="sans-serif" font-size="14.00" fill="#000000"> &#160;Providers</text>
<polygon fill="#fb8072" stroke="transparent" points="562,-10 562,-30 582,-30 582,-10 562,-10"/>
<text text-anchor="start" x="585.7258" y="-15.4" font-family="sans-serif" font-size="14.00" fill="#000000"> &#160;Exports</text>
<g id="clust1" class="cluster">
<title>cluster_AuthenticationModule</title>
<polygon fill="none" stroke="#000000" stroke-dasharray="1,5" points="8,-70 8,-195 800,-195 800,-70 8,-70"/>
</g>
<g id="clust2" class="cluster">
<title>cluster_AuthenticationModule_declarations</title>
<polygon fill="none" stroke="#000000" points="498,-78 498,-130 792,-130 792,-78 498,-78"/>
</g>
<g id="clust5" class="cluster">
<title>cluster_AuthenticationModule_imports</title>
<polygon fill="none" stroke="#000000" points="16,-78 16,-130 490,-130 490,-78 16,-78"/>
</g>
<!-- LoginComponent -->
<g id="node1" class="node">
<title>LoginComponent</title>
<polygon fill="#ffffb3" stroke="#000000" points="784.2758,-122 669.7242,-122 669.7242,-86 784.2758,-86 784.2758,-122"/>
<text text-anchor="middle" x="727" y="-99.8" font-family="Times,serif" font-size="14.00" fill="#000000">LoginComponent</text>
</g>
<!-- AuthenticationModule -->
<g id="node3" class="node">
<title>AuthenticationModule</title>
<polygon fill="#8dd3c7" stroke="#000000" points="459.2534,-187 456.2534,-191 435.2534,-191 432.2534,-187 316.7466,-187 316.7466,-151 459.2534,-151 459.2534,-187"/>
<text text-anchor="middle" x="388" y="-164.8" font-family="Times,serif" font-size="14.00" fill="#000000">AuthenticationModule</text>
</g>
<!-- LoginComponent&#45;&gt;AuthenticationModule -->
<g id="edge1" class="edge">
<title>LoginComponent&#45;&gt;AuthenticationModule</title>
<path fill="none" stroke="#000000" d="M727,-122.2843C727,-143.3211 727,-175 727,-175 727,-175 469.4789,-175 469.4789,-175"/>
<polygon fill="#000000" stroke="#000000" points="469.479,-171.5001 459.4789,-175 469.4789,-178.5001 469.479,-171.5001"/>
</g>
<!-- LoginFormComponent -->
<g id="node2" class="node">
<title>LoginFormComponent</title>
<polygon fill="#ffffb3" stroke="#000000" points="651.6094,-122 506.3906,-122 506.3906,-86 651.6094,-86 651.6094,-122"/>
<text text-anchor="middle" x="579" y="-99.8" font-family="Times,serif" font-size="14.00" fill="#000000">LoginFormComponent</text>
</g>
<!-- LoginFormComponent&#45;&gt;AuthenticationModule -->
<g id="edge2" class="edge">
<title>LoginFormComponent&#45;&gt;AuthenticationModule</title>
<path fill="none" stroke="#000000" d="M579,-122.0225C579,-139.3734 579,-163 579,-163 579,-163 469.393,-163 469.393,-163"/>
<polygon fill="#000000" stroke="#000000" points="469.393,-159.5001 459.393,-163 469.3929,-166.5001 469.393,-159.5001"/>
</g>
<!-- AuthenticationRoutingModule -->
<g id="node4" class="node">
<title>AuthenticationRoutingModule</title>
<polygon fill="#8dd3c7" stroke="#000000" points="481.871,-122 478.871,-126 457.871,-126 454.871,-122 294.129,-122 294.129,-86 481.871,-86 481.871,-122"/>
<text text-anchor="middle" x="388" y="-99.8" font-family="Times,serif" font-size="14.00" fill="#000000">AuthenticationRoutingModule</text>
</g>
<!-- AuthenticationRoutingModule&#45;&gt;AuthenticationModule -->
<g id="edge3" class="edge">
<title>AuthenticationRoutingModule&#45;&gt;AuthenticationModule</title>
<path fill="none" stroke="#000000" d="M388,-122.1061C388,-122.1061 388,-140.991 388,-140.991"/>
<polygon fill="#000000" stroke="#000000" points="384.5001,-140.9909 388,-150.991 391.5001,-140.991 384.5001,-140.9909"/>
</g>
<!-- MaterialModule -->
<g id="node5" class="node">
<title>MaterialModule</title>
<polygon fill="#8dd3c7" stroke="#000000" points="276.4706,-122 273.4706,-126 252.4706,-126 249.4706,-122 169.5294,-122 169.5294,-86 276.4706,-86 276.4706,-122"/>
<text text-anchor="middle" x="223" y="-99.8" font-family="Times,serif" font-size="14.00" fill="#000000">MaterialModule</text>
</g>
<!-- MaterialModule&#45;&gt;AuthenticationModule -->
<g id="edge4" class="edge">
<title>MaterialModule&#45;&gt;AuthenticationModule</title>
<path fill="none" stroke="#000000" d="M223,-122.0225C223,-139.3734 223,-163 223,-163 223,-163 306.5882,-163 306.5882,-163"/>
<polygon fill="#000000" stroke="#000000" points="306.5883,-166.5001 316.5882,-163 306.5882,-159.5001 306.5883,-166.5001"/>
</g>
<!-- NotificationModule -->
<g id="node6" class="node">
<title>NotificationModule</title>
<polygon fill="#8dd3c7" stroke="#000000" points="151.6994,-122 148.6994,-126 127.6994,-126 124.6994,-122 24.3006,-122 24.3006,-86 151.6994,-86 151.6994,-122"/>
<text text-anchor="middle" x="88" y="-99.8" font-family="Times,serif" font-size="14.00" fill="#000000">NotificationModule</text>
</g>
<!-- NotificationModule&#45;&gt;AuthenticationModule -->
<g id="edge5" class="edge">
<title>NotificationModule&#45;&gt;AuthenticationModule</title>
<path fill="none" stroke="#000000" d="M88,-122.2843C88,-143.3211 88,-175 88,-175 88,-175 306.5237,-175 306.5237,-175"/>
<polygon fill="#000000" stroke="#000000" points="306.5237,-178.5001 316.5237,-175 306.5236,-171.5001 306.5237,-178.5001"/>
</g>
</g>
</svg>
