<?xml version="1.0" encoding="UTF-8" standalone="no"?>
<!DOCTYPE svg PUBLIC "-//W3C//DTD SVG 1.1//EN"
 "http://www.w3.org/Graphics/SVG/1.1/DTD/svg11.dtd">
<!-- Generated by graphviz version 2.40.1 (20161225.0304)
 -->
<!-- Title: dependencies Pages: 1 -->
<svg width="905pt" height="211pt"
 viewBox="0.00 0.00 905.00 211.00" xmlns="http://www.w3.org/2000/svg" xmlns:xlink="http://www.w3.org/1999/xlink">
<g id="graph0" class="graph" transform="scale(1 1) rotate(0) translate(4 207)">
<title>dependencies</title>
<polygon fill="#ffffff" stroke="transparent" points="-4,4 -4,-207 901,-207 901,4 -4,4"/>
<text text-anchor="start" x="427.5091" y="-42.4" font-family="sans-serif" font-weight="bold" font-size="14.00" fill="#000000">Legend</text>
<polygon fill="#ffffb3" stroke="transparent" points="214.5,-10 214.5,-30 234.5,-30 234.5,-10 214.5,-10"/>
<text text-anchor="start" x="238.129" y="-15.4" font-family="sans-serif" font-size="14.00" fill="#000000"> &#160;Declarations</text>
<polygon fill="#8dd3c7" stroke="transparent" points="327.5,-10 327.5,-30 347.5,-30 347.5,-10 327.5,-10"/>
<text text-anchor="start" x="351.2251" y="-15.4" font-family="sans-serif" font-size="14.00" fill="#000000"> &#160;Module</text>
<polygon fill="#80b1d3" stroke="transparent" points="413.5,-10 413.5,-30 433.5,-30 433.5,-10 413.5,-10"/>
<text text-anchor="start" x="437.2812" y="-15.4" font-family="sans-serif" font-size="14.00" fill="#000000"> &#160;Bootstrap</text>
<polygon fill="#fdb462" stroke="transparent" points="510.5,-10 510.5,-30 530.5,-30 530.5,-10 510.5,-10"/>
<text text-anchor="start" x="534.1732" y="-15.4" font-family="sans-serif" font-size="14.00" fill="#000000"> &#160;Providers</text>
<polygon fill="#fb8072" stroke="transparent" points="606.5,-10 606.5,-30 626.5,-30 626.5,-10 606.5,-10"/>
<text text-anchor="start" x="630.2258" y="-15.4" font-family="sans-serif" font-size="14.00" fill="#000000"> &#160;Exports</text>
<g id="clust1" class="cluster">
<title>cluster_DashboardModule</title>
<polygon fill="none" stroke="#000000" stroke-dasharray="1,5" points="8,-70 8,-195 889,-195 889,-70 8,-70"/>
</g>
<g id="clust2" class="cluster">
<title>cluster_DashboardModule_declarations</title>
<polygon fill="none" stroke="#000000" points="721,-78 721,-130 881,-130 881,-78 721,-78"/>
</g>
<g id="clust4" class="cluster">
<title>cluster_DashboardModule_imports</title>
<polygon fill="none" stroke="#000000" points="16,-78 16,-130 713,-130 713,-78 16,-78"/>
</g>
<!-- DashBoardComponent -->
<g id="node1" class="node">
<title>DashBoardComponent</title>
<polygon fill="#ffffb3" stroke="#000000" points="873.3103,-122 728.6897,-122 728.6897,-86 873.3103,-86 873.3103,-122"/>
<text text-anchor="middle" x="801" y="-99.8" font-family="Times,serif" font-size="14.00" fill="#000000">DashBoardComponent</text>
</g>
<!-- DashboardModule -->
<g id="node2" class="node">
<title>DashboardModule</title>
<polygon fill="#8dd3c7" stroke="#000000" points="513.191,-187 510.191,-191 489.191,-191 486.191,-187 392.809,-187 392.809,-151 513.191,-151 513.191,-187"/>
<text text-anchor="middle" x="453" y="-164.8" font-family="Times,serif" font-size="14.00" fill="#000000">DashboardModule</text>
</g>
<!-- DashBoardComponent&#45;&gt;DashboardModule -->
<g id="edge1" class="edge">
<title>DashBoardComponent&#45;&gt;DashboardModule</title>
<path fill="none" stroke="#000000" d="M801,-122.2843C801,-143.3211 801,-175 801,-175 801,-175 523.2197,-175 523.2197,-175"/>
<polygon fill="#000000" stroke="#000000" points="523.2197,-171.5001 513.2197,-175 523.2196,-178.5001 523.2197,-171.5001"/>
</g>
<!-- AppCustomLayoutsModule -->
<g id="node3" class="node">
<title>AppCustomLayoutsModule</title>
<polygon fill="#8dd3c7" stroke="#000000" points="705.3215,-122 702.3215,-126 681.3215,-126 678.3215,-122 532.6785,-122 532.6785,-86 705.3215,-86 705.3215,-122"/>
<text text-anchor="middle" x="619" y="-99.8" font-family="Times,serif" font-size="14.00" fill="#000000">AppCustomLayoutsModule</text>
</g>
<!-- AppCustomLayoutsModule&#45;&gt;DashboardModule -->
<g id="edge2" class="edge">
<title>AppCustomLayoutsModule&#45;&gt;DashboardModule</title>
<path fill="none" stroke="#000000" d="M619,-122.0225C619,-139.3734 619,-163 619,-163 619,-163 523.3994,-163 523.3994,-163"/>
<polygon fill="#000000" stroke="#000000" points="523.3994,-159.5001 513.3994,-163 523.3994,-166.5001 523.3994,-159.5001"/>
</g>
<!-- AppLoaderModule -->
<g id="node4" class="node">
<title>AppLoaderModule</title>
<polygon fill="#8dd3c7" stroke="#000000" points="514.7992,-122 511.7992,-126 490.7992,-126 487.7992,-122 391.2008,-122 391.2008,-86 514.7992,-86 514.7992,-122"/>
<text text-anchor="middle" x="453" y="-99.8" font-family="Times,serif" font-size="14.00" fill="#000000">AppLoaderModule</text>
</g>
<!-- AppLoaderModule&#45;&gt;DashboardModule -->
<g id="edge3" class="edge">
<title>AppLoaderModule&#45;&gt;DashboardModule</title>
<path fill="none" stroke="#000000" d="M453,-122.1061C453,-122.1061 453,-140.991 453,-140.991"/>
<polygon fill="#000000" stroke="#000000" points="449.5001,-140.9909 453,-150.991 456.5001,-140.991 449.5001,-140.9909"/>
</g>
<!-- DashboardRoutingModule -->
<g id="node5" class="node">
<title>DashboardRoutingModule</title>
<polygon fill="#8dd3c7" stroke="#000000" points="373.8089,-122 370.8089,-126 349.8089,-126 346.8089,-122 208.1911,-122 208.1911,-86 373.8089,-86 373.8089,-122"/>
<text text-anchor="middle" x="291" y="-99.8" font-family="Times,serif" font-size="14.00" fill="#000000">DashboardRoutingModule</text>
</g>
<!-- DashboardRoutingModule&#45;&gt;DashboardModule -->
<g id="edge4" class="edge">
<title>DashboardRoutingModule&#45;&gt;DashboardModule</title>
<path fill="none" stroke="#000000" d="M291,-122.0225C291,-139.3734 291,-163 291,-163 291,-163 382.6772,-163 382.6772,-163"/>
<polygon fill="#000000" stroke="#000000" points="382.6772,-166.5001 392.6772,-163 382.6771,-159.5001 382.6772,-166.5001"/>
</g>
<!-- Vnas2UiCommonsModule -->
<g id="node6" class="node">
<title>Vnas2UiCommonsModule</title>
<polygon fill="#8dd3c7" stroke="#000000" points="190.3752,-122 187.3752,-126 166.3752,-126 163.3752,-122 23.6248,-122 23.6248,-86 190.3752,-86 190.3752,-122"/>
<text text-anchor="middle" x="107" y="-99.8" font-family="Times,serif" font-size="14.00" fill="#000000">Vnas2UiCommonsModule</text>
</g>
<!-- Vnas2UiCommonsModule&#45;&gt;DashboardModule -->
<g id="edge5" class="edge">
<title>Vnas2UiCommonsModule&#45;&gt;DashboardModule</title>
<path fill="none" stroke="#000000" d="M107,-122.2843C107,-143.3211 107,-175 107,-175 107,-175 382.7314,-175 382.7314,-175"/>
<polygon fill="#000000" stroke="#000000" points="382.7314,-178.5001 392.7314,-175 382.7314,-171.5001 382.7314,-178.5001"/>
</g>
</g>
</svg>
