<?xml version="1.0" encoding="UTF-8" standalone="no"?>
<!DOCTYPE svg PUBLIC "-//W3C//DTD SVG 1.1//EN"
 "http://www.w3.org/Graphics/SVG/1.1/DTD/svg11.dtd">
<!-- Generated by graphviz version 2.40.1 (20161225.0304)
 -->
<!-- Title: dependencies Pages: 1 -->
<svg width="1679pt" height="211pt"
 viewBox="0.00 0.00 1679.00 211.00" xmlns="http://www.w3.org/2000/svg" xmlns:xlink="http://www.w3.org/1999/xlink">
<g id="graph0" class="graph" transform="scale(1 1) rotate(0) translate(4 207)">
<title>dependencies</title>
<polygon fill="#ffffff" stroke="transparent" points="-4,4 -4,-207 1675,-207 1675,4 -4,4"/>
<text text-anchor="start" x="814.5091" y="-42.4" font-family="sans-serif" font-weight="bold" font-size="14.00" fill="#000000">Legend</text>
<polygon fill="#ffffb3" stroke="transparent" points="601.5,-10 601.5,-30 621.5,-30 621.5,-10 601.5,-10"/>
<text text-anchor="start" x="625.129" y="-15.4" font-family="sans-serif" font-size="14.00" fill="#000000"> &#160;Declarations</text>
<polygon fill="#8dd3c7" stroke="transparent" points="714.5,-10 714.5,-30 734.5,-30 734.5,-10 714.5,-10"/>
<text text-anchor="start" x="738.2251" y="-15.4" font-family="sans-serif" font-size="14.00" fill="#000000"> &#160;Module</text>
<polygon fill="#80b1d3" stroke="transparent" points="800.5,-10 800.5,-30 820.5,-30 820.5,-10 800.5,-10"/>
<text text-anchor="start" x="824.2812" y="-15.4" font-family="sans-serif" font-size="14.00" fill="#000000"> &#160;Bootstrap</text>
<polygon fill="#fdb462" stroke="transparent" points="897.5,-10 897.5,-30 917.5,-30 917.5,-10 897.5,-10"/>
<text text-anchor="start" x="921.1732" y="-15.4" font-family="sans-serif" font-size="14.00" fill="#000000"> &#160;Providers</text>
<polygon fill="#fb8072" stroke="transparent" points="993.5,-10 993.5,-30 1013.5,-30 1013.5,-10 993.5,-10"/>
<text text-anchor="start" x="1017.2258" y="-15.4" font-family="sans-serif" font-size="14.00" fill="#000000"> &#160;Exports</text>
<g id="clust1" class="cluster">
<title>cluster_Vnas2ObjectsPageModule</title>
<polygon fill="none" stroke="#000000" stroke-dasharray="1,5" points="8,-70 8,-195 1663,-195 1663,-70 8,-70"/>
</g>
<g id="clust2" class="cluster">
<title>cluster_Vnas2ObjectsPageModule_declarations</title>
<polygon fill="none" stroke="#000000" points="1101,-78 1101,-130 1655,-130 1655,-78 1101,-78"/>
</g>
<g id="clust6" class="cluster">
<title>cluster_Vnas2ObjectsPageModule_imports</title>
<polygon fill="none" stroke="#000000" points="334,-78 334,-130 1093,-130 1093,-78 334,-78"/>
</g>
<g id="clust9" class="cluster">
<title>cluster_Vnas2ObjectsPageModule_providers</title>
<polygon fill="none" stroke="#000000" points="16,-78 16,-130 326,-130 326,-78 16,-78"/>
</g>
<!-- AboutObjectComponent -->
<g id="node1" class="node">
<title>AboutObjectComponent</title>
<polygon fill="#ffffb3" stroke="#000000" points="1646.647,-122 1493.353,-122 1493.353,-86 1646.647,-86 1646.647,-122"/>
<text text-anchor="middle" x="1570" y="-99.8" font-family="Times,serif" font-size="14.00" fill="#000000">AboutObjectComponent</text>
</g>
<!-- Vnas2ObjectsPageModule -->
<g id="node4" class="node">
<title>Vnas2ObjectsPageModule</title>
<polygon fill="#8dd3c7" stroke="#000000" points="978.7893,-187 975.7893,-191 954.7893,-191 951.7893,-187 813.2107,-187 813.2107,-151 978.7893,-151 978.7893,-187"/>
<text text-anchor="middle" x="896" y="-164.8" font-family="Times,serif" font-size="14.00" fill="#000000">Vnas2ObjectsPageModule</text>
</g>
<!-- AboutObjectComponent&#45;&gt;Vnas2ObjectsPageModule -->
<g id="edge1" class="edge">
<title>AboutObjectComponent&#45;&gt;Vnas2ObjectsPageModule</title>
<path fill="none" stroke="#000000" d="M1570,-122.2921C1570,-144.2057 1570,-178 1570,-178 1570,-178 988.6456,-178 988.6456,-178"/>
<polygon fill="#000000" stroke="#000000" points="988.6457,-174.5001 978.6456,-178 988.6456,-181.5001 988.6457,-174.5001"/>
</g>
<!-- CrossAnalysticComponent -->
<g id="node2" class="node">
<title>CrossAnalysticComponent</title>
<polygon fill="#ffffb3" stroke="#000000" points="1475.371,-122 1308.629,-122 1308.629,-86 1475.371,-86 1475.371,-122"/>
<text text-anchor="middle" x="1392" y="-99.8" font-family="Times,serif" font-size="14.00" fill="#000000">CrossAnalysticComponent</text>
</g>
<!-- CrossAnalysticComponent&#45;&gt;Vnas2ObjectsPageModule -->
<g id="edge2" class="edge">
<title>CrossAnalysticComponent&#45;&gt;Vnas2ObjectsPageModule</title>
<path fill="none" stroke="#000000" d="M1392,-122.1061C1392,-141.3391 1392,-169 1392,-169 1392,-169 988.74,-169 988.74,-169"/>
<polygon fill="#000000" stroke="#000000" points="988.74,-165.5001 978.74,-169 988.74,-172.5001 988.74,-165.5001"/>
</g>
<!-- Vnas2ObjectPageComponent -->
<g id="node3" class="node">
<title>Vnas2ObjectPageComponent</title>
<polygon fill="#ffffb3" stroke="#000000" points="1290.6274,-122 1109.3726,-122 1109.3726,-86 1290.6274,-86 1290.6274,-122"/>
<text text-anchor="middle" x="1200" y="-99.8" font-family="Times,serif" font-size="14.00" fill="#000000">Vnas2ObjectPageComponent</text>
</g>
<!-- Vnas2ObjectPageComponent&#45;&gt;Vnas2ObjectsPageModule -->
<g id="edge3" class="edge">
<title>Vnas2ObjectPageComponent&#45;&gt;Vnas2ObjectsPageModule</title>
<path fill="none" stroke="#000000" d="M1200,-122.027C1200,-138.3976 1200,-160 1200,-160 1200,-160 988.6678,-160 988.6678,-160"/>
<polygon fill="#000000" stroke="#000000" points="988.6678,-156.5001 978.6678,-160 988.6677,-163.5001 988.6678,-156.5001"/>
</g>
<!-- AppTwoColumnsLayoutsModule -->
<g id="node5" class="node">
<title>AppTwoColumnsLayoutsModule</title>
<polygon fill="#8dd3c7" stroke="#000000" points="1085.4804,-122 1082.4804,-126 1061.4804,-126 1058.4804,-122 880.5196,-122 880.5196,-86 1085.4804,-86 1085.4804,-122"/>
<text text-anchor="middle" x="983" y="-99.8" font-family="Times,serif" font-size="14.00" fill="#000000">AppTwoColumnsLayoutsModule</text>
</g>
<!-- AppTwoColumnsLayoutsModule&#45;&gt;Vnas2ObjectsPageModule -->
<g id="edge4" class="edge">
<title>AppTwoColumnsLayoutsModule&#45;&gt;Vnas2ObjectsPageModule</title>
<path fill="none" stroke="#000000" d="M929.5772,-122.1061C929.5772,-122.1061 929.5772,-140.991 929.5772,-140.991"/>
<polygon fill="#000000" stroke="#000000" points="926.0772,-140.9909 929.5772,-150.991 933.0772,-140.991 926.0772,-140.9909"/>
</g>
<!-- MaterialModule -->
<g id="node6" class="node">
<title>MaterialModule</title>
<polygon fill="#8dd3c7" stroke="#000000" points="862.4706,-122 859.4706,-126 838.4706,-126 835.4706,-122 755.5294,-122 755.5294,-86 862.4706,-86 862.4706,-122"/>
<text text-anchor="middle" x="809" y="-99.8" font-family="Times,serif" font-size="14.00" fill="#000000">MaterialModule</text>
</g>
<!-- MaterialModule&#45;&gt;Vnas2ObjectsPageModule -->
<g id="edge5" class="edge">
<title>MaterialModule&#45;&gt;Vnas2ObjectsPageModule</title>
<path fill="none" stroke="#000000" d="M837.9204,-122.1061C837.9204,-122.1061 837.9204,-140.991 837.9204,-140.991"/>
<polygon fill="#000000" stroke="#000000" points="834.4205,-140.9909 837.9204,-150.991 841.4205,-140.991 834.4205,-140.9909"/>
</g>
<!-- Vnas2ObjectsPageRoutingModule -->
<g id="node7" class="node">
<title>Vnas2ObjectsPageRoutingModule</title>
<polygon fill="#8dd3c7" stroke="#000000" points="737.4072,-122 734.4072,-126 713.4072,-126 710.4072,-122 526.5928,-122 526.5928,-86 737.4072,-86 737.4072,-122"/>
<text text-anchor="middle" x="632" y="-99.8" font-family="Times,serif" font-size="14.00" fill="#000000">Vnas2ObjectsPageRoutingModule</text>
</g>
<!-- Vnas2ObjectsPageRoutingModule&#45;&gt;Vnas2ObjectsPageModule -->
<g id="edge6" class="edge">
<title>Vnas2ObjectsPageRoutingModule&#45;&gt;Vnas2ObjectsPageModule</title>
<path fill="none" stroke="#000000" d="M632,-122.027C632,-138.3976 632,-160 632,-160 632,-160 803.1931,-160 803.1931,-160"/>
<polygon fill="#000000" stroke="#000000" points="803.1931,-163.5001 813.1931,-160 803.1931,-156.5001 803.1931,-163.5001"/>
</g>
<!-- Vnas2UiCommonsModule -->
<g id="node8" class="node">
<title>Vnas2UiCommonsModule</title>
<polygon fill="#8dd3c7" stroke="#000000" points="508.3752,-122 505.3752,-126 484.3752,-126 481.3752,-122 341.6248,-122 341.6248,-86 508.3752,-86 508.3752,-122"/>
<text text-anchor="middle" x="425" y="-99.8" font-family="Times,serif" font-size="14.00" fill="#000000">Vnas2UiCommonsModule</text>
</g>
<!-- Vnas2UiCommonsModule&#45;&gt;Vnas2ObjectsPageModule -->
<g id="edge7" class="edge">
<title>Vnas2UiCommonsModule&#45;&gt;Vnas2ObjectsPageModule</title>
<path fill="none" stroke="#000000" d="M425,-122.1061C425,-141.3391 425,-169 425,-169 425,-169 803.1491,-169 803.1491,-169"/>
<polygon fill="#000000" stroke="#000000" points="803.1492,-172.5001 813.1491,-169 803.1491,-165.5001 803.1492,-172.5001"/>
</g>
<!-- Vnas2ObjectsPageSandboxService -->
<g id="node9" class="node">
<title>Vnas2ObjectsPageSandboxService</title>
<ellipse fill="#fdb462" stroke="#000000" cx="171" cy="-104" rx="146.9528" ry="18"/>
<text text-anchor="middle" x="171" y="-99.8" font-family="Times,serif" font-size="14.00" fill="#000000">Vnas2ObjectsPageSandboxService</text>
</g>
<!-- Vnas2ObjectsPageSandboxService&#45;&gt;Vnas2ObjectsPageModule -->
<g id="edge8" class="edge">
<title>Vnas2ObjectsPageSandboxService&#45;&gt;Vnas2ObjectsPageModule</title>
<path fill="none" stroke="#000000" d="M171,-122.2921C171,-144.2057 171,-178 171,-178 171,-178 803.1865,-178 803.1865,-178"/>
<polygon fill="#000000" stroke="#000000" points="803.1865,-181.5001 813.1865,-178 803.1865,-174.5001 803.1865,-181.5001"/>
</g>
</g>
</svg>
