<?xml version="1.0" encoding="UTF-8" standalone="no"?>
<!DOCTYPE svg PUBLIC "-//W3C//DTD SVG 1.1//EN"
 "http://www.w3.org/Graphics/SVG/1.1/DTD/svg11.dtd">
<!-- Generated by graphviz version 2.40.1 (20161225.0304)
 -->
<!-- Title: dependencies Pages: 1 -->
<svg width="4765pt" height="211pt"
 viewBox="0.00 0.00 4765.00 211.00" xmlns="http://www.w3.org/2000/svg" xmlns:xlink="http://www.w3.org/1999/xlink">
<g id="graph0" class="graph" transform="scale(1 1) rotate(0) translate(4 207)">
<title>dependencies</title>
<polygon fill="#ffffff" stroke="transparent" points="-4,4 -4,-207 4761,-207 4761,4 -4,4"/>
<text text-anchor="start" x="2357.5091" y="-42.4" font-family="sans-serif" font-weight="bold" font-size="14.00" fill="#000000">Legend</text>
<polygon fill="#ffffb3" stroke="transparent" points="2144.5,-10 2144.5,-30 2164.5,-30 2164.5,-10 2144.5,-10"/>
<text text-anchor="start" x="2168.129" y="-15.4" font-family="sans-serif" font-size="14.00" fill="#000000"> &#160;Declarations</text>
<polygon fill="#8dd3c7" stroke="transparent" points="2257.5,-10 2257.5,-30 2277.5,-30 2277.5,-10 2257.5,-10"/>
<text text-anchor="start" x="2281.2251" y="-15.4" font-family="sans-serif" font-size="14.00" fill="#000000"> &#160;Module</text>
<polygon fill="#80b1d3" stroke="transparent" points="2343.5,-10 2343.5,-30 2363.5,-30 2363.5,-10 2343.5,-10"/>
<text text-anchor="start" x="2367.2812" y="-15.4" font-family="sans-serif" font-size="14.00" fill="#000000"> &#160;Bootstrap</text>
<polygon fill="#fdb462" stroke="transparent" points="2440.5,-10 2440.5,-30 2460.5,-30 2460.5,-10 2440.5,-10"/>
<text text-anchor="start" x="2464.1732" y="-15.4" font-family="sans-serif" font-size="14.00" fill="#000000"> &#160;Providers</text>
<polygon fill="#fb8072" stroke="transparent" points="2536.5,-10 2536.5,-30 2556.5,-30 2556.5,-10 2536.5,-10"/>
<text text-anchor="start" x="2560.2258" y="-15.4" font-family="sans-serif" font-size="14.00" fill="#000000"> &#160;Exports</text>
<g id="clust1" class="cluster">
<title>cluster_Vnas2SettingsModule</title>
<polygon fill="none" stroke="#000000" stroke-dasharray="1,5" points="8,-70 8,-195 4749,-195 4749,-70 8,-70"/>
</g>
<g id="clust2" class="cluster">
<title>cluster_Vnas2SettingsModule_declarations</title>
<polygon fill="none" stroke="#000000" points="1326,-78 1326,-130 4741,-130 4741,-78 1326,-78"/>
</g>
<g id="clust17" class="cluster">
<title>cluster_Vnas2SettingsModule_imports</title>
<polygon fill="none" stroke="#000000" points="300,-78 300,-130 1318,-130 1318,-78 300,-78"/>
</g>
<g id="clust20" class="cluster">
<title>cluster_Vnas2SettingsModule_providers</title>
<polygon fill="none" stroke="#000000" points="16,-78 16,-130 292,-130 292,-78 16,-78"/>
</g>
<!-- AppSettingsConfirmComponent -->
<g id="node1" class="node">
<title>AppSettingsConfirmComponent</title>
<polygon fill="#ffffb3" stroke="#000000" points="4732.9916,-122 4535.0084,-122 4535.0084,-86 4732.9916,-86 4732.9916,-122"/>
<text text-anchor="middle" x="4634" y="-99.8" font-family="Times,serif" font-size="14.00" fill="#000000">AppSettingsConfirmComponent</text>
</g>
<!-- Vnas2SettingsModule -->
<g id="node15" class="node">
<title>Vnas2SettingsModule</title>
<polygon fill="#8dd3c7" stroke="#000000" points="2321.4299,-187 2318.4299,-191 2297.4299,-191 2294.4299,-187 2180.5701,-187 2180.5701,-151 2321.4299,-151 2321.4299,-187"/>
<text text-anchor="middle" x="2251" y="-164.8" font-family="Times,serif" font-size="14.00" fill="#000000">Vnas2SettingsModule</text>
</g>
<!-- AppSettingsConfirmComponent&#45;&gt;Vnas2SettingsModule -->
<g id="edge1" class="edge">
<title>AppSettingsConfirmComponent&#45;&gt;Vnas2SettingsModule</title>
<path fill="none" stroke="#000000" d="M4634,-122.1532C4634,-145.7566 4634,-184 4634,-184 4634,-184 2331.3497,-184 2331.3497,-184"/>
<polygon fill="#000000" stroke="#000000" points="2331.3497,-180.5001 2321.3497,-184 2331.3496,-187.5001 2331.3497,-180.5001"/>
</g>
<!-- Vnas2SettingsComponent -->
<g id="node2" class="node">
<title>Vnas2SettingsComponent</title>
<polygon fill="#ffffb3" stroke="#000000" points="4517.2119,-122 4354.7881,-122 4354.7881,-86 4517.2119,-86 4517.2119,-122"/>
<text text-anchor="middle" x="4436" y="-99.8" font-family="Times,serif" font-size="14.00" fill="#000000">Vnas2SettingsComponent</text>
</g>
<!-- Vnas2SettingsComponent&#45;&gt;Vnas2SettingsModule -->
<g id="edge2" class="edge">
<title>Vnas2SettingsComponent&#45;&gt;Vnas2SettingsModule</title>
<path fill="none" stroke="#000000" d="M4436,-122.2479C4436,-145.0179 4436,-181 4436,-181 4436,-181 2331.2241,-181 2331.2241,-181"/>
<polygon fill="#000000" stroke="#000000" points="2331.2242,-177.5001 2321.2241,-181 2331.2241,-184.5001 2331.2242,-177.5001"/>
</g>
<!-- Vnas2SettingsDomainConfirmDeleteComponent -->
<g id="node3" class="node">
<title>Vnas2SettingsDomainConfirmDeleteComponent</title>
<polygon fill="#ffffb3" stroke="#000000" points="4336.7849,-122 4045.2151,-122 4045.2151,-86 4336.7849,-86 4336.7849,-122"/>
<text text-anchor="middle" x="4191" y="-99.8" font-family="Times,serif" font-size="14.00" fill="#000000">Vnas2SettingsDomainConfirmDeleteComponent</text>
</g>
<!-- Vnas2SettingsDomainConfirmDeleteComponent&#45;&gt;Vnas2SettingsModule -->
<g id="edge3" class="edge">
<title>Vnas2SettingsDomainConfirmDeleteComponent&#45;&gt;Vnas2SettingsModule</title>
<path fill="none" stroke="#000000" d="M4191,-122.2921C4191,-144.2057 4191,-178 4191,-178 4191,-178 2331.4796,-178 2331.4796,-178"/>
<polygon fill="#000000" stroke="#000000" points="2331.4796,-174.5001 2321.4796,-178 2331.4796,-181.5001 2331.4796,-174.5001"/>
</g>
<!-- Vnas2SettingsDomainFormComponent -->
<g id="node4" class="node">
<title>Vnas2SettingsDomainFormComponent</title>
<polygon fill="#ffffb3" stroke="#000000" points="4027.6483,-122 3790.3517,-122 3790.3517,-86 4027.6483,-86 4027.6483,-122"/>
<text text-anchor="middle" x="3909" y="-99.8" font-family="Times,serif" font-size="14.00" fill="#000000">Vnas2SettingsDomainFormComponent</text>
</g>
<!-- Vnas2SettingsDomainFormComponent&#45;&gt;Vnas2SettingsModule -->
<g id="edge4" class="edge">
<title>Vnas2SettingsDomainFormComponent&#45;&gt;Vnas2SettingsModule</title>
<path fill="none" stroke="#000000" d="M3909,-122.0267C3909,-142.7672 3909,-174 3909,-174 3909,-174 2331.4473,-174 2331.4473,-174"/>
<polygon fill="#000000" stroke="#000000" points="2331.4473,-170.5001 2321.4473,-174 2331.4472,-177.5001 2331.4473,-170.5001"/>
</g>
<!-- Vnas2SettingsFormComponent -->
<g id="node5" class="node">
<title>Vnas2SettingsFormComponent</title>
<polygon fill="#ffffb3" stroke="#000000" points="3772.0461,-122 3579.9539,-122 3579.9539,-86 3772.0461,-86 3772.0461,-122"/>
<text text-anchor="middle" x="3676" y="-99.8" font-family="Times,serif" font-size="14.00" fill="#000000">Vnas2SettingsFormComponent</text>
</g>
<!-- Vnas2SettingsFormComponent&#45;&gt;Vnas2SettingsModule -->
<g id="edge5" class="edge">
<title>Vnas2SettingsFormComponent&#45;&gt;Vnas2SettingsModule</title>
<path fill="none" stroke="#000000" d="M3676,-122.308C3676,-142.1455 3676,-171 3676,-171 3676,-171 2331.666,-171 2331.666,-171"/>
<polygon fill="#000000" stroke="#000000" points="2331.666,-167.5001 2321.666,-171 2331.6659,-174.5001 2331.666,-167.5001"/>
</g>
<!-- Vnas2SettingsLayoutComponent -->
<g id="node6" class="node">
<title>Vnas2SettingsLayoutComponent</title>
<polygon fill="#ffffb3" stroke="#000000" points="3561.8696,-122 3360.1304,-122 3360.1304,-86 3561.8696,-86 3561.8696,-122"/>
<text text-anchor="middle" x="3461" y="-99.8" font-family="Times,serif" font-size="14.00" fill="#000000">Vnas2SettingsLayoutComponent</text>
</g>
<!-- Vnas2SettingsLayoutComponent&#45;&gt;Vnas2SettingsModule -->
<g id="edge6" class="edge">
<title>Vnas2SettingsLayoutComponent&#45;&gt;Vnas2SettingsModule</title>
<path fill="none" stroke="#000000" d="M3461,-122.1686C3461,-141.0898 3461,-168 3461,-168 3461,-168 2331.2848,-168 2331.2848,-168"/>
<polygon fill="#000000" stroke="#000000" points="2331.2848,-164.5001 2321.2848,-168 2331.2847,-171.5001 2331.2848,-164.5001"/>
</g>
<!-- Vnas2SettingsListItemComponent -->
<g id="node7" class="node">
<title>Vnas2SettingsListItemComponent</title>
<polygon fill="#ffffb3" stroke="#000000" points="3341.6469,-122 3132.3531,-122 3132.3531,-86 3341.6469,-86 3341.6469,-122"/>
<text text-anchor="middle" x="3237" y="-99.8" font-family="Times,serif" font-size="14.00" fill="#000000">Vnas2SettingsListItemComponent</text>
</g>
<!-- Vnas2SettingsListItemComponent&#45;&gt;Vnas2SettingsModule -->
<g id="edge7" class="edge">
<title>Vnas2SettingsListItemComponent&#45;&gt;Vnas2SettingsModule</title>
<path fill="none" stroke="#000000" d="M3237,-122.302C3237,-140.2699 3237,-165 3237,-165 3237,-165 2331.515,-165 2331.515,-165"/>
<polygon fill="#000000" stroke="#000000" points="2331.515,-161.5001 2321.515,-165 2331.515,-168.5001 2331.515,-161.5001"/>
</g>
<!-- Vnas2SettingsListSocialObjectsComponent -->
<g id="node8" class="node">
<title>Vnas2SettingsListSocialObjectsComponent</title>
<polygon fill="#ffffb3" stroke="#000000" points="3113.7449,-122 2852.2551,-122 2852.2551,-86 3113.7449,-86 3113.7449,-122"/>
<text text-anchor="middle" x="2983" y="-99.8" font-family="Times,serif" font-size="14.00" fill="#000000">Vnas2SettingsListSocialObjectsComponent</text>
</g>
<!-- Vnas2SettingsListSocialObjectsComponent&#45;&gt;Vnas2SettingsModule -->
<g id="edge8" class="edge">
<title>Vnas2SettingsListSocialObjectsComponent&#45;&gt;Vnas2SettingsModule</title>
<path fill="none" stroke="#000000" d="M2983,-122.0352C2983,-138.7344 2983,-161 2983,-161 2983,-161 2331.5195,-161 2331.5195,-161"/>
<polygon fill="#000000" stroke="#000000" points="2331.5195,-157.5001 2321.5195,-161 2331.5194,-164.5001 2331.5195,-157.5001"/>
</g>
<!-- Vnas2SettingsMenuComponent -->
<g id="node9" class="node">
<title>Vnas2SettingsMenuComponent</title>
<polygon fill="#ffffb3" stroke="#000000" points="2834.371,-122 2639.629,-122 2639.629,-86 2834.371,-86 2834.371,-122"/>
<text text-anchor="middle" x="2737" y="-99.8" font-family="Times,serif" font-size="14.00" fill="#000000">Vnas2SettingsMenuComponent</text>
</g>
<!-- Vnas2SettingsMenuComponent&#45;&gt;Vnas2SettingsModule -->
<g id="edge9" class="edge">
<title>Vnas2SettingsMenuComponent&#45;&gt;Vnas2SettingsModule</title>
<path fill="none" stroke="#000000" d="M2737,-122.2819C2737,-137.9478 2737,-158 2737,-158 2737,-158 2331.4089,-158 2331.4089,-158"/>
<polygon fill="#000000" stroke="#000000" points="2331.4089,-154.5001 2321.4089,-158 2331.4088,-161.5001 2331.4089,-154.5001"/>
</g>
<!-- Vnas2SettingsNewsBasketComponent -->
<g id="node10" class="node">
<title>Vnas2SettingsNewsBasketComponent</title>
<polygon fill="#ffffb3" stroke="#000000" points="2621.1853,-122 2388.8147,-122 2388.8147,-86 2621.1853,-86 2621.1853,-122"/>
<text text-anchor="middle" x="2505" y="-99.8" font-family="Times,serif" font-size="14.00" fill="#000000">Vnas2SettingsNewsBasketComponent</text>
</g>
<!-- Vnas2SettingsNewsBasketComponent&#45;&gt;Vnas2SettingsModule -->
<g id="edge10" class="edge">
<title>Vnas2SettingsNewsBasketComponent&#45;&gt;Vnas2SettingsModule</title>
<path fill="none" stroke="#000000" d="M2505,-122.1243C2505,-136.7832 2505,-155 2505,-155 2505,-155 2331.4159,-155 2331.4159,-155"/>
<polygon fill="#000000" stroke="#000000" points="2331.4159,-151.5001 2321.4159,-155 2331.4158,-158.5001 2331.4159,-151.5001"/>
</g>
<!-- Vnas2SettingsNewsDomainComponent -->
<g id="node11" class="node">
<title>Vnas2SettingsNewsDomainComponent</title>
<polygon fill="#ffffb3" stroke="#000000" points="2370.6867,-122 2131.3133,-122 2131.3133,-86 2370.6867,-86 2370.6867,-122"/>
<text text-anchor="middle" x="2251" y="-99.8" font-family="Times,serif" font-size="14.00" fill="#000000">Vnas2SettingsNewsDomainComponent</text>
</g>
<!-- Vnas2SettingsNewsDomainComponent&#45;&gt;Vnas2SettingsModule -->
<g id="edge11" class="edge">
<title>Vnas2SettingsNewsDomainComponent&#45;&gt;Vnas2SettingsModule</title>
<path fill="none" stroke="#000000" d="M2251,-122.1061C2251,-122.1061 2251,-140.991 2251,-140.991"/>
<polygon fill="#000000" stroke="#000000" points="2247.5001,-140.9909 2251,-150.991 2254.5001,-140.991 2247.5001,-140.9909"/>
</g>
<!-- Vnas2SettingsSocialObjectComponent -->
<g id="node12" class="node">
<title>Vnas2SettingsSocialObjectComponent</title>
<polygon fill="#ffffb3" stroke="#000000" points="2113.0223,-122 1878.9777,-122 1878.9777,-86 2113.0223,-86 2113.0223,-122"/>
<text text-anchor="middle" x="1996" y="-99.8" font-family="Times,serif" font-size="14.00" fill="#000000">Vnas2SettingsSocialObjectComponent</text>
</g>
<!-- Vnas2SettingsSocialObjectComponent&#45;&gt;Vnas2SettingsModule -->
<g id="edge12" class="edge">
<title>Vnas2SettingsSocialObjectComponent&#45;&gt;Vnas2SettingsModule</title>
<path fill="none" stroke="#000000" d="M1996,-122.1243C1996,-136.7832 1996,-155 1996,-155 1996,-155 2170.6451,-155 2170.6451,-155"/>
<polygon fill="#000000" stroke="#000000" points="2170.6451,-158.5001 2180.6451,-155 2170.6451,-151.5001 2170.6451,-158.5001"/>
</g>
<!-- Vnas2SettingsSocialObjectFormComponent -->
<g id="node13" class="node">
<title>Vnas2SettingsSocialObjectFormComponent</title>
<polygon fill="#ffffb3" stroke="#000000" points="1860.3556,-122 1595.6444,-122 1595.6444,-86 1860.3556,-86 1860.3556,-122"/>
<text text-anchor="middle" x="1728" y="-99.8" font-family="Times,serif" font-size="14.00" fill="#000000">Vnas2SettingsSocialObjectFormComponent</text>
</g>
<!-- Vnas2SettingsSocialObjectFormComponent&#45;&gt;Vnas2SettingsModule -->
<g id="edge13" class="edge">
<title>Vnas2SettingsSocialObjectFormComponent&#45;&gt;Vnas2SettingsModule</title>
<path fill="none" stroke="#000000" d="M1728,-122.2819C1728,-137.9478 1728,-158 1728,-158 1728,-158 2170.7374,-158 2170.7374,-158"/>
<polygon fill="#000000" stroke="#000000" points="2170.7375,-161.5001 2180.7374,-158 2170.7374,-154.5001 2170.7375,-161.5001"/>
</g>
<!-- Vnas2SettingsTableTreeableComponent -->
<g id="node14" class="node">
<title>Vnas2SettingsTableTreeableComponent</title>
<polygon fill="#ffffb3" stroke="#000000" points="1577.5464,-122 1334.4536,-122 1334.4536,-86 1577.5464,-86 1577.5464,-122"/>
<text text-anchor="middle" x="1456" y="-99.8" font-family="Times,serif" font-size="14.00" fill="#000000">Vnas2SettingsTableTreeableComponent</text>
</g>
<!-- Vnas2SettingsTableTreeableComponent&#45;&gt;Vnas2SettingsModule -->
<g id="edge14" class="edge">
<title>Vnas2SettingsTableTreeableComponent&#45;&gt;Vnas2SettingsModule</title>
<path fill="none" stroke="#000000" d="M1456,-122.0352C1456,-138.7344 1456,-161 1456,-161 1456,-161 2170.4491,-161 2170.4491,-161"/>
<polygon fill="#000000" stroke="#000000" points="2170.4491,-164.5001 2180.4491,-161 2170.449,-157.5001 2170.4491,-164.5001"/>
</g>
<!-- AppDialogModule -->
<g id="node16" class="node">
<title>AppDialogModule</title>
<polygon fill="#8dd3c7" stroke="#000000" points="1309.759,-122 1306.759,-126 1285.759,-126 1282.759,-122 1188.241,-122 1188.241,-86 1309.759,-86 1309.759,-122"/>
<text text-anchor="middle" x="1249" y="-99.8" font-family="Times,serif" font-size="14.00" fill="#000000">AppDialogModule</text>
</g>
<!-- AppDialogModule&#45;&gt;Vnas2SettingsModule -->
<g id="edge15" class="edge">
<title>AppDialogModule&#45;&gt;Vnas2SettingsModule</title>
<path fill="none" stroke="#000000" d="M1249,-122.302C1249,-140.2699 1249,-165 1249,-165 1249,-165 2170.5413,-165 2170.5413,-165"/>
<polygon fill="#000000" stroke="#000000" points="2170.5413,-168.5001 2180.5413,-165 2170.5413,-161.5001 2170.5413,-168.5001"/>
</g>
<!-- AppTwoColumnsLayoutsModule -->
<g id="node17" class="node">
<title>AppTwoColumnsLayoutsModule</title>
<polygon fill="#8dd3c7" stroke="#000000" points="1170.4804,-122 1167.4804,-126 1146.4804,-126 1143.4804,-122 965.5196,-122 965.5196,-86 1170.4804,-86 1170.4804,-122"/>
<text text-anchor="middle" x="1068" y="-99.8" font-family="Times,serif" font-size="14.00" fill="#000000">AppTwoColumnsLayoutsModule</text>
</g>
<!-- AppTwoColumnsLayoutsModule&#45;&gt;Vnas2SettingsModule -->
<g id="edge16" class="edge">
<title>AppTwoColumnsLayoutsModule&#45;&gt;Vnas2SettingsModule</title>
<path fill="none" stroke="#000000" d="M1068,-122.1686C1068,-141.0898 1068,-168 1068,-168 1068,-168 2170.5407,-168 2170.5407,-168"/>
<polygon fill="#000000" stroke="#000000" points="2170.5408,-171.5001 2180.5407,-168 2170.5407,-164.5001 2170.5408,-171.5001"/>
</g>
<!-- MaterialModule -->
<g id="node18" class="node">
<title>MaterialModule</title>
<polygon fill="#8dd3c7" stroke="#000000" points="947.4706,-122 944.4706,-126 923.4706,-126 920.4706,-122 840.5294,-122 840.5294,-86 947.4706,-86 947.4706,-122"/>
<text text-anchor="middle" x="894" y="-99.8" font-family="Times,serif" font-size="14.00" fill="#000000">MaterialModule</text>
</g>
<!-- MaterialModule&#45;&gt;Vnas2SettingsModule -->
<g id="edge17" class="edge">
<title>MaterialModule&#45;&gt;Vnas2SettingsModule</title>
<path fill="none" stroke="#000000" d="M894,-122.308C894,-142.1455 894,-171 894,-171 894,-171 2170.4265,-171 2170.4265,-171"/>
<polygon fill="#000000" stroke="#000000" points="2170.4266,-174.5001 2180.4265,-171 2170.4265,-167.5001 2170.4266,-174.5001"/>
</g>
<!-- NotificationModule -->
<g id="node19" class="node">
<title>NotificationModule</title>
<polygon fill="#8dd3c7" stroke="#000000" points="822.6994,-122 819.6994,-126 798.6994,-126 795.6994,-122 695.3006,-122 695.3006,-86 822.6994,-86 822.6994,-122"/>
<text text-anchor="middle" x="759" y="-99.8" font-family="Times,serif" font-size="14.00" fill="#000000">NotificationModule</text>
</g>
<!-- NotificationModule&#45;&gt;Vnas2SettingsModule -->
<g id="edge18" class="edge">
<title>NotificationModule&#45;&gt;Vnas2SettingsModule</title>
<path fill="none" stroke="#000000" d="M759,-122.0267C759,-142.7672 759,-174 759,-174 759,-174 2170.541,-174 2170.541,-174"/>
<polygon fill="#000000" stroke="#000000" points="2170.541,-177.5001 2180.541,-174 2170.5409,-170.5001 2170.541,-177.5001"/>
</g>
<!-- Vnas2SettingsRoutingModule -->
<g id="node20" class="node">
<title>Vnas2SettingsRoutingModule</title>
<polygon fill="#8dd3c7" stroke="#000000" points="677.5476,-122 674.5476,-126 653.5476,-126 650.5476,-122 492.4524,-122 492.4524,-86 677.5476,-86 677.5476,-122"/>
<text text-anchor="middle" x="585" y="-99.8" font-family="Times,serif" font-size="14.00" fill="#000000">Vnas2SettingsRoutingModule</text>
</g>
<!-- Vnas2SettingsRoutingModule&#45;&gt;Vnas2SettingsModule -->
<g id="edge19" class="edge">
<title>Vnas2SettingsRoutingModule&#45;&gt;Vnas2SettingsModule</title>
<path fill="none" stroke="#000000" d="M585,-122.2921C585,-144.2057 585,-178 585,-178 585,-178 2170.7431,-178 2170.7431,-178"/>
<polygon fill="#000000" stroke="#000000" points="2170.7431,-181.5001 2180.7431,-178 2170.743,-174.5001 2170.7431,-181.5001"/>
</g>
<!-- Vnas2UiCommonsModule -->
<g id="node21" class="node">
<title>Vnas2UiCommonsModule</title>
<polygon fill="#8dd3c7" stroke="#000000" points="474.3752,-122 471.3752,-126 450.3752,-126 447.3752,-122 307.6248,-122 307.6248,-86 474.3752,-86 474.3752,-122"/>
<text text-anchor="middle" x="391" y="-99.8" font-family="Times,serif" font-size="14.00" fill="#000000">Vnas2UiCommonsModule</text>
</g>
<!-- Vnas2UiCommonsModule&#45;&gt;Vnas2SettingsModule -->
<g id="edge20" class="edge">
<title>Vnas2UiCommonsModule&#45;&gt;Vnas2SettingsModule</title>
<path fill="none" stroke="#000000" d="M391,-122.2479C391,-145.0179 391,-181 391,-181 391,-181 2170.6387,-181 2170.6387,-181"/>
<polygon fill="#000000" stroke="#000000" points="2170.6387,-184.5001 2180.6387,-181 2170.6386,-177.5001 2170.6387,-184.5001"/>
</g>
<!-- Vnas2SettingsSandboxService -->
<g id="node22" class="node">
<title>Vnas2SettingsSandboxService</title>
<ellipse fill="#fdb462" stroke="#000000" cx="154" cy="-104" rx="129.6568" ry="18"/>
<text text-anchor="middle" x="154" y="-99.8" font-family="Times,serif" font-size="14.00" fill="#000000">Vnas2SettingsSandboxService</text>
</g>
<!-- Vnas2SettingsSandboxService&#45;&gt;Vnas2SettingsModule -->
<g id="edge21" class="edge">
<title>Vnas2SettingsSandboxService&#45;&gt;Vnas2SettingsModule</title>
<path fill="none" stroke="#000000" d="M154,-122.1532C154,-145.7566 154,-184 154,-184 154,-184 2170.6294,-184 2170.6294,-184"/>
<polygon fill="#000000" stroke="#000000" points="2170.6295,-187.5001 2180.6294,-184 2170.6294,-180.5001 2170.6295,-187.5001"/>
</g>
</g>
</svg>
