<?xml version="1.0" encoding="UTF-8" standalone="no"?>
<!DOCTYPE svg PUBLIC "-//W3C//DTD SVG 1.1//EN"
 "http://www.w3.org/Graphics/SVG/1.1/DTD/svg11.dtd">
<!-- Generated by graphviz version 2.40.1 (20161225.0304)
 -->
<!-- Title: dependencies Pages: 1 -->
<svg width="504pt" height="284pt"
 viewBox="0.00 0.00 504.00 284.00" xmlns="http://www.w3.org/2000/svg" xmlns:xlink="http://www.w3.org/1999/xlink">
<g id="graph0" class="graph" transform="scale(1 1) rotate(0) translate(4 280)">
<title>dependencies</title>
<polygon fill="#ffffff" stroke="transparent" points="-4,4 -4,-280 500,-280 500,4 -4,4"/>
<text text-anchor="start" x="227.0091" y="-42.4" font-family="sans-serif" font-weight="bold" font-size="14.00" fill="#000000">Legend</text>
<polygon fill="#ffffb3" stroke="transparent" points="14,-10 14,-30 34,-30 34,-10 14,-10"/>
<text text-anchor="start" x="37.629" y="-15.4" font-family="sans-serif" font-size="14.00" fill="#000000"> &#160;Declarations</text>
<polygon fill="#8dd3c7" stroke="transparent" points="127,-10 127,-30 147,-30 147,-10 127,-10"/>
<text text-anchor="start" x="150.7251" y="-15.4" font-family="sans-serif" font-size="14.00" fill="#000000"> &#160;Module</text>
<polygon fill="#80b1d3" stroke="transparent" points="213,-10 213,-30 233,-30 233,-10 213,-10"/>
<text text-anchor="start" x="236.7812" y="-15.4" font-family="sans-serif" font-size="14.00" fill="#000000"> &#160;Bootstrap</text>
<polygon fill="#fdb462" stroke="transparent" points="310,-10 310,-30 330,-30 330,-10 310,-10"/>
<text text-anchor="start" x="333.6732" y="-15.4" font-family="sans-serif" font-size="14.00" fill="#000000"> &#160;Providers</text>
<polygon fill="#fb8072" stroke="transparent" points="406,-10 406,-30 426,-30 426,-10 406,-10"/>
<text text-anchor="start" x="429.7258" y="-15.4" font-family="sans-serif" font-size="14.00" fill="#000000"> &#160;Exports</text>
<g id="clust1" class="cluster">
<title>cluster_AppLoaderModule</title>
<polygon fill="none" stroke="#000000" stroke-dasharray="1,5" points="30.5,-70 30.5,-268 465.5,-268 465.5,-70 30.5,-70"/>
</g>
<g id="clust2" class="cluster">
<title>cluster_AppLoaderModule_declarations</title>
<polygon fill="none" stroke="#000000" points="42.5,-78 42.5,-130 454.5,-130 454.5,-78 42.5,-78"/>
</g>
<g id="clust6" class="cluster">
<title>cluster_AppLoaderModule_exports</title>
<polygon fill="none" stroke="#000000" points="38.5,-208 38.5,-260 457.5,-260 457.5,-208 38.5,-208"/>
</g>
<!-- AppContentLoaderComponent -->
<g id="node1" class="node">
<title>AppContentLoaderComponent</title>
<polygon fill="#ffffb3" stroke="#000000" points="446.4143,-122 256.5857,-122 256.5857,-86 446.4143,-86 446.4143,-122"/>
<text text-anchor="middle" x="351.5" y="-99.8" font-family="Times,serif" font-size="14.00" fill="#000000">AppContentLoaderComponent</text>
</g>
<!-- AppLoaderModule -->
<g id="node3" class="node">
<title>AppLoaderModule</title>
<polygon fill="#8dd3c7" stroke="#000000" points="207.2992,-187 204.2992,-191 183.2992,-191 180.2992,-187 83.7008,-187 83.7008,-151 207.2992,-151 207.2992,-187"/>
<text text-anchor="middle" x="145.5" y="-164.8" font-family="Times,serif" font-size="14.00" fill="#000000">AppLoaderModule</text>
</g>
<!-- AppContentLoaderComponent&#45;&gt;AppLoaderModule -->
<g id="edge1" class="edge">
<title>AppContentLoaderComponent&#45;&gt;AppLoaderModule</title>
<path fill="none" stroke="#000000" d="M383.1523,-122.0225C383.1523,-139.3734 383.1523,-163 383.1523,-163 383.1523,-163 217.32,-163 217.32,-163"/>
<polygon fill="#000000" stroke="#000000" points="217.32,-159.5001 207.32,-163 217.3199,-166.5001 217.32,-159.5001"/>
</g>
<!-- AppSpinnerLoaderComponent -->
<g id="node2" class="node">
<title>AppSpinnerLoaderComponent</title>
<polygon fill="#ffffb3" stroke="#000000" points="238.6302,-122 50.3698,-122 50.3698,-86 238.6302,-86 238.6302,-122"/>
<text text-anchor="middle" x="144.5" y="-99.8" font-family="Times,serif" font-size="14.00" fill="#000000">AppSpinnerLoaderComponent</text>
</g>
<!-- AppSpinnerLoaderComponent&#45;&gt;AppLoaderModule -->
<g id="edge2" class="edge">
<title>AppSpinnerLoaderComponent&#45;&gt;AppLoaderModule</title>
<path fill="none" stroke="#000000" d="M145.5,-122.1061C145.5,-122.1061 145.5,-140.991 145.5,-140.991"/>
<polygon fill="#000000" stroke="#000000" points="142.0001,-140.9909 145.5,-150.991 149.0001,-140.991 142.0001,-140.9909"/>
</g>
<!-- AppContentLoaderComponent  -->
<g id="node4" class="node">
<title>AppContentLoaderComponent </title>
<polygon fill="#fb8072" stroke="#000000" points="449.9138,-252 257.0862,-252 257.0862,-216 449.9138,-216 449.9138,-252"/>
<text text-anchor="middle" x="353.5" y="-229.8" font-family="Times,serif" font-size="14.00" fill="#000000">AppContentLoaderComponent </text>
</g>
<!-- AppLoaderModule&#45;&gt;AppContentLoaderComponent  -->
<g id="edge3" class="edge">
<title>AppLoaderModule&#45;&gt;AppContentLoaderComponent </title>
<path fill="none" stroke="#000000" stroke-dasharray="5,2" d="M207.5482,-175C257.7326,-175 320.0977,-175 320.0977,-175 320.0977,-175 320.0977,-205.9775 320.0977,-205.9775"/>
<polygon fill="#000000" stroke="#000000" points="316.5978,-205.9774 320.0977,-215.9775 323.5978,-205.9775 316.5978,-205.9774"/>
</g>
<!-- AppSpinnerLoaderComponent  -->
<g id="node5" class="node">
<title>AppSpinnerLoaderComponent </title>
<polygon fill="#fb8072" stroke="#000000" points="238.6298,-252 46.3702,-252 46.3702,-216 238.6298,-216 238.6298,-252"/>
<text text-anchor="middle" x="142.5" y="-229.8" font-family="Times,serif" font-size="14.00" fill="#000000">AppSpinnerLoaderComponent </text>
</g>
<!-- AppLoaderModule&#45;&gt;AppSpinnerLoaderComponent  -->
<g id="edge4" class="edge">
<title>AppLoaderModule&#45;&gt;AppSpinnerLoaderComponent </title>
<path fill="none" stroke="#000000" stroke-dasharray="5,2" d="M145.5,-187.1061C145.5,-187.1061 145.5,-205.991 145.5,-205.991"/>
<polygon fill="#000000" stroke="#000000" points="142.0001,-205.9909 145.5,-215.991 149.0001,-205.991 142.0001,-205.9909"/>
</g>
</g>
</svg>
