<?xml version="1.0" encoding="UTF-8" standalone="no"?>
<!DOCTYPE svg PUBLIC "-//W3C//DTD SVG 1.1//EN"
 "http://www.w3.org/Graphics/SVG/1.1/DTD/svg11.dtd">
<!-- Generated by graphviz version 2.40.1 (20161225.0304)
 -->
<!-- Title: dependencies Pages: 1 -->
<svg width="848pt" height="284pt"
 viewBox="0.00 0.00 848.00 284.00" xmlns="http://www.w3.org/2000/svg" xmlns:xlink="http://www.w3.org/1999/xlink">
<g id="graph0" class="graph" transform="scale(1 1) rotate(0) translate(4 280)">
<title>dependencies</title>
<polygon fill="#ffffff" stroke="transparent" points="-4,4 -4,-280 844,-280 844,4 -4,4"/>
<text text-anchor="start" x="399.0091" y="-42.4" font-family="sans-serif" font-weight="bold" font-size="14.00" fill="#000000">Legend</text>
<polygon fill="#ffffb3" stroke="transparent" points="186,-10 186,-30 206,-30 206,-10 186,-10"/>
<text text-anchor="start" x="209.629" y="-15.4" font-family="sans-serif" font-size="14.00" fill="#000000"> &#160;Declarations</text>
<polygon fill="#8dd3c7" stroke="transparent" points="299,-10 299,-30 319,-30 319,-10 299,-10"/>
<text text-anchor="start" x="322.7251" y="-15.4" font-family="sans-serif" font-size="14.00" fill="#000000"> &#160;Module</text>
<polygon fill="#80b1d3" stroke="transparent" points="385,-10 385,-30 405,-30 405,-10 385,-10"/>
<text text-anchor="start" x="408.7812" y="-15.4" font-family="sans-serif" font-size="14.00" fill="#000000"> &#160;Bootstrap</text>
<polygon fill="#fdb462" stroke="transparent" points="482,-10 482,-30 502,-30 502,-10 482,-10"/>
<text text-anchor="start" x="505.6732" y="-15.4" font-family="sans-serif" font-size="14.00" fill="#000000"> &#160;Providers</text>
<polygon fill="#fb8072" stroke="transparent" points="578,-10 578,-30 598,-30 598,-10 578,-10"/>
<text text-anchor="start" x="601.7258" y="-15.4" font-family="sans-serif" font-size="14.00" fill="#000000"> &#160;Exports</text>
<g id="clust1" class="cluster">
<title>cluster_AppModule</title>
<polygon fill="none" stroke="#000000" stroke-dasharray="1,5" points="8,-70 8,-268 832,-268 832,-70 8,-70"/>
</g>
<g id="clust2" class="cluster">
<title>cluster_AppModule_declarations</title>
<polygon fill="none" stroke="#000000" points="702,-78 702,-130 824,-130 824,-78 702,-78"/>
</g>
<g id="clust4" class="cluster">
<title>cluster_AppModule_imports</title>
<polygon fill="none" stroke="#000000" points="16,-78 16,-130 694,-130 694,-78 16,-78"/>
</g>
<g id="clust6" class="cluster">
<title>cluster_AppModule_bootstrap</title>
<polygon fill="none" stroke="#000000" points="352,-208 352,-260 476,-260 476,-208 352,-208"/>
</g>
<!-- AppComponent -->
<g id="node1" class="node">
<title>AppComponent</title>
<polygon fill="#ffffb3" stroke="#000000" points="815.9399,-122 710.0601,-122 710.0601,-86 815.9399,-86 815.9399,-122"/>
<text text-anchor="middle" x="763" y="-99.8" font-family="Times,serif" font-size="14.00" fill="#000000">AppComponent</text>
</g>
<!-- AppModule -->
<g id="node2" class="node">
<title>AppModule</title>
<polygon fill="#8dd3c7" stroke="#000000" points="455.6571,-187 452.6571,-191 431.6571,-191 428.6571,-187 372.3429,-187 372.3429,-151 455.6571,-151 455.6571,-187"/>
<text text-anchor="middle" x="414" y="-164.8" font-family="Times,serif" font-size="14.00" fill="#000000">AppModule</text>
</g>
<!-- AppComponent&#45;&gt;AppModule -->
<g id="edge1" class="edge">
<title>AppComponent&#45;&gt;AppModule</title>
<path fill="none" stroke="#000000" d="M763,-122.2843C763,-143.3211 763,-175 763,-175 763,-175 465.7509,-175 465.7509,-175"/>
<polygon fill="#000000" stroke="#000000" points="465.7509,-171.5001 455.7509,-175 465.7509,-178.5001 465.7509,-171.5001"/>
</g>
<!-- AppComponent  -->
<g id="node8" class="node">
<title>AppComponent </title>
<polygon fill="#80b1d3" stroke="#000000" points="468.439,-252 359.561,-252 359.561,-216 468.439,-216 468.439,-252"/>
<text text-anchor="middle" x="414" y="-229.8" font-family="Times,serif" font-size="14.00" fill="#000000">AppComponent </text>
</g>
<!-- AppModule&#45;&gt;AppComponent  -->
<g id="edge7" class="edge">
<title>AppModule&#45;&gt;AppComponent </title>
<path fill="none" stroke="#000000" stroke-dasharray="1,5" d="M414,-187.1061C414,-187.1061 414,-205.991 414,-205.991"/>
<polygon fill="#000000" stroke="#000000" points="410.5001,-205.9909 414,-215.991 417.5001,-205.991 410.5001,-205.9909"/>
</g>
<!-- AppLoaderModule -->
<g id="node3" class="node">
<title>AppLoaderModule</title>
<polygon fill="#8dd3c7" stroke="#000000" points="685.7992,-122 682.7992,-126 661.7992,-126 658.7992,-122 562.2008,-122 562.2008,-86 685.7992,-86 685.7992,-122"/>
<text text-anchor="middle" x="624" y="-99.8" font-family="Times,serif" font-size="14.00" fill="#000000">AppLoaderModule</text>
</g>
<!-- AppLoaderModule&#45;&gt;AppModule -->
<g id="edge2" class="edge">
<title>AppLoaderModule&#45;&gt;AppModule</title>
<path fill="none" stroke="#000000" d="M624,-122.0225C624,-139.3734 624,-163 624,-163 624,-163 465.7403,-163 465.7403,-163"/>
<polygon fill="#000000" stroke="#000000" points="465.7404,-159.5001 455.7403,-163 465.7403,-166.5001 465.7404,-159.5001"/>
</g>
<!-- AppRoutingModule -->
<g id="node4" class="node">
<title>AppRoutingModule</title>
<polygon fill="#8dd3c7" stroke="#000000" points="544.2744,-122 541.2744,-126 520.2744,-126 517.2744,-122 415.7256,-122 415.7256,-86 544.2744,-86 544.2744,-122"/>
<text text-anchor="middle" x="480" y="-99.8" font-family="Times,serif" font-size="14.00" fill="#000000">AppRoutingModule</text>
</g>
<!-- AppRoutingModule&#45;&gt;AppModule -->
<g id="edge3" class="edge">
<title>AppRoutingModule&#45;&gt;AppModule</title>
<path fill="none" stroke="#000000" d="M435.7206,-122.1061C435.7206,-122.1061 435.7206,-140.991 435.7206,-140.991"/>
<polygon fill="#000000" stroke="#000000" points="432.2206,-140.9909 435.7206,-150.991 439.2206,-140.991 432.2206,-140.9909"/>
</g>
<!-- LoggerModule -->
<g id="node5" class="node">
<title>LoggerModule</title>
<polygon fill="#8dd3c7" stroke="#000000" points="397.9776,-122 394.9776,-126 373.9776,-126 370.9776,-122 298.0224,-122 298.0224,-86 397.9776,-86 397.9776,-122"/>
<text text-anchor="middle" x="348" y="-99.8" font-family="Times,serif" font-size="14.00" fill="#000000">LoggerModule</text>
</g>
<!-- LoggerModule&#45;&gt;AppModule -->
<g id="edge4" class="edge">
<title>LoggerModule&#45;&gt;AppModule</title>
<path fill="none" stroke="#000000" d="M385.0803,-122.1061C385.0803,-122.1061 385.0803,-140.991 385.0803,-140.991"/>
<polygon fill="#000000" stroke="#000000" points="381.5804,-140.9909 385.0803,-150.991 388.5804,-140.991 381.5804,-140.9909"/>
</g>
<!-- Vnas2ApiModule -->
<g id="node6" class="node">
<title>Vnas2ApiModule</title>
<polygon fill="#8dd3c7" stroke="#000000" points="280.3132,-122 277.3132,-126 256.3132,-126 253.3132,-122 163.6868,-122 163.6868,-86 280.3132,-86 280.3132,-122"/>
<text text-anchor="middle" x="222" y="-99.8" font-family="Times,serif" font-size="14.00" fill="#000000">Vnas2ApiModule</text>
</g>
<!-- Vnas2ApiModule&#45;&gt;AppModule -->
<g id="edge5" class="edge">
<title>Vnas2ApiModule&#45;&gt;AppModule</title>
<path fill="none" stroke="#000000" d="M222,-122.0225C222,-139.3734 222,-163 222,-163 222,-163 362.3389,-163 362.3389,-163"/>
<polygon fill="#000000" stroke="#000000" points="362.3389,-166.5001 372.3389,-163 362.3388,-159.5001 362.3389,-166.5001"/>
</g>
<!-- Vnas2CoreModule -->
<g id="node7" class="node">
<title>Vnas2CoreModule</title>
<polygon fill="#8dd3c7" stroke="#000000" points="146.0283,-122 143.0283,-126 122.0283,-126 119.0283,-122 23.9717,-122 23.9717,-86 146.0283,-86 146.0283,-122"/>
<text text-anchor="middle" x="85" y="-99.8" font-family="Times,serif" font-size="14.00" fill="#000000">Vnas2CoreModule</text>
</g>
<!-- Vnas2CoreModule&#45;&gt;AppModule -->
<g id="edge6" class="edge">
<title>Vnas2CoreModule&#45;&gt;AppModule</title>
<path fill="none" stroke="#000000" d="M85,-122.2843C85,-143.3211 85,-175 85,-175 85,-175 362.3319,-175 362.3319,-175"/>
<polygon fill="#000000" stroke="#000000" points="362.332,-178.5001 372.3319,-175 362.3319,-171.5001 362.332,-178.5001"/>
</g>
</g>
</svg>
