<?xml version="1.0" encoding="UTF-8" standalone="no"?>
<!DOCTYPE svg PUBLIC "-//W3C//DTD SVG 1.1//EN"
 "http://www.w3.org/Graphics/SVG/1.1/DTD/svg11.dtd">
<!-- Generated by graphviz version 2.40.1 (20161225.0304)
 -->
<!-- Title: dependencies Pages: 1 -->
<svg width="504pt" height="211pt"
 viewBox="0.00 0.00 504.00 211.00" xmlns="http://www.w3.org/2000/svg" xmlns:xlink="http://www.w3.org/1999/xlink">
<g id="graph0" class="graph" transform="scale(1 1) rotate(0) translate(4 207)">
<title>dependencies</title>
<polygon fill="#ffffff" stroke="transparent" points="-4,4 -4,-207 500,-207 500,4 -4,4"/>
<text text-anchor="start" x="227.0091" y="-42.4" font-family="sans-serif" font-weight="bold" font-size="14.00" fill="#000000">Legend</text>
<polygon fill="#ffffb3" stroke="transparent" points="14,-10 14,-30 34,-30 34,-10 14,-10"/>
<text text-anchor="start" x="37.629" y="-15.4" font-family="sans-serif" font-size="14.00" fill="#000000"> &#160;Declarations</text>
<polygon fill="#8dd3c7" stroke="transparent" points="127,-10 127,-30 147,-30 147,-10 127,-10"/>
<text text-anchor="start" x="150.7251" y="-15.4" font-family="sans-serif" font-size="14.00" fill="#000000"> &#160;Module</text>
<polygon fill="#80b1d3" stroke="transparent" points="213,-10 213,-30 233,-30 233,-10 213,-10"/>
<text text-anchor="start" x="236.7812" y="-15.4" font-family="sans-serif" font-size="14.00" fill="#000000"> &#160;Bootstrap</text>
<polygon fill="#fdb462" stroke="transparent" points="310,-10 310,-30 330,-30 330,-10 310,-10"/>
<text text-anchor="start" x="333.6732" y="-15.4" font-family="sans-serif" font-size="14.00" fill="#000000"> &#160;Providers</text>
<polygon fill="#fb8072" stroke="transparent" points="406,-10 406,-30 426,-30 426,-10 406,-10"/>
<text text-anchor="start" x="429.7258" y="-15.4" font-family="sans-serif" font-size="14.00" fill="#000000"> &#160;Exports</text>
<g id="clust1" class="cluster">
<title>cluster_LayoutsModule</title>
<polygon fill="none" stroke="#000000" stroke-dasharray="1,5" points="8,-70 8,-195 488,-195 488,-70 8,-70"/>
</g>
<g id="clust2" class="cluster">
<title>cluster_LayoutsModule_declarations</title>
<polygon fill="none" stroke="#000000" points="338,-78 338,-130 480,-130 480,-78 338,-78"/>
</g>
<g id="clust4" class="cluster">
<title>cluster_LayoutsModule_imports</title>
<polygon fill="none" stroke="#000000" points="16,-78 16,-130 330,-130 330,-78 16,-78"/>
</g>
<!-- LayoutsComponent -->
<g id="node1" class="node">
<title>LayoutsComponent</title>
<polygon fill="#ffffb3" stroke="#000000" points="472.4356,-122 345.5644,-122 345.5644,-86 472.4356,-86 472.4356,-122"/>
<text text-anchor="middle" x="409" y="-99.8" font-family="Times,serif" font-size="14.00" fill="#000000">LayoutsComponent</text>
</g>
<!-- LayoutsModule -->
<g id="node2" class="node">
<title>LayoutsModule</title>
<polygon fill="#8dd3c7" stroke="#000000" points="309.1528,-187 306.1528,-191 285.1528,-191 282.1528,-187 204.8472,-187 204.8472,-151 309.1528,-151 309.1528,-187"/>
<text text-anchor="middle" x="257" y="-164.8" font-family="Times,serif" font-size="14.00" fill="#000000">LayoutsModule</text>
</g>
<!-- LayoutsComponent&#45;&gt;LayoutsModule -->
<g id="edge1" class="edge">
<title>LayoutsComponent&#45;&gt;LayoutsModule</title>
<path fill="none" stroke="#000000" d="M409,-122.1061C409,-141.3391 409,-169 409,-169 409,-169 319.3098,-169 319.3098,-169"/>
<polygon fill="#000000" stroke="#000000" points="319.3098,-165.5001 309.3098,-169 319.3097,-172.5001 319.3098,-165.5001"/>
</g>
<!-- AppHeadersModule -->
<g id="node3" class="node">
<title>AppHeadersModule</title>
<polygon fill="#8dd3c7" stroke="#000000" points="321.5129,-122 318.5129,-126 297.5129,-126 294.5129,-122 192.4871,-122 192.4871,-86 321.5129,-86 321.5129,-122"/>
<text text-anchor="middle" x="257" y="-99.8" font-family="Times,serif" font-size="14.00" fill="#000000">AppHeadersModule</text>
</g>
<!-- AppHeadersModule&#45;&gt;LayoutsModule -->
<g id="edge2" class="edge">
<title>AppHeadersModule&#45;&gt;LayoutsModule</title>
<path fill="none" stroke="#000000" d="M257,-122.1061C257,-122.1061 257,-140.991 257,-140.991"/>
<polygon fill="#000000" stroke="#000000" points="253.5001,-140.9909 257,-150.991 260.5001,-140.991 253.5001,-140.9909"/>
</g>
<!-- LayoutsRoutingModule -->
<g id="node4" class="node">
<title>LayoutsRoutingModule</title>
<polygon fill="#8dd3c7" stroke="#000000" points="173.7702,-122 170.7702,-126 149.7702,-126 146.7702,-122 24.2298,-122 24.2298,-86 173.7702,-86 173.7702,-122"/>
<text text-anchor="middle" x="99" y="-99.8" font-family="Times,serif" font-size="14.00" fill="#000000">LayoutsRoutingModule</text>
</g>
<!-- LayoutsRoutingModule&#45;&gt;LayoutsModule -->
<g id="edge3" class="edge">
<title>LayoutsRoutingModule&#45;&gt;LayoutsModule</title>
<path fill="none" stroke="#000000" d="M99,-122.1061C99,-141.3391 99,-169 99,-169 99,-169 194.827,-169 194.827,-169"/>
<polygon fill="#000000" stroke="#000000" points="194.827,-172.5001 204.827,-169 194.827,-165.5001 194.827,-172.5001"/>
</g>
</g>
</svg>
