<?xml version="1.0" encoding="UTF-8" standalone="no"?>
<!DOCTYPE svg PUBLIC "-//W3C//DTD SVG 1.1//EN"
 "http://www.w3.org/Graphics/SVG/1.1/DTD/svg11.dtd">
<!-- Generated by graphviz version 2.40.1 (20161225.0304)
 -->
<!-- Title: dependencies Pages: 1 -->
<svg width="712pt" height="284pt"
 viewBox="0.00 0.00 712.00 284.00" xmlns="http://www.w3.org/2000/svg" xmlns:xlink="http://www.w3.org/1999/xlink">
<g id="graph0" class="graph" transform="scale(1 1) rotate(0) translate(4 280)">
<title>dependencies</title>
<polygon fill="#ffffff" stroke="transparent" points="-4,4 -4,-280 708,-280 708,4 -4,4"/>
<text text-anchor="start" x="331.0091" y="-42.4" font-family="sans-serif" font-weight="bold" font-size="14.00" fill="#000000">Legend</text>
<polygon fill="#ffffb3" stroke="transparent" points="118,-10 118,-30 138,-30 138,-10 118,-10"/>
<text text-anchor="start" x="141.629" y="-15.4" font-family="sans-serif" font-size="14.00" fill="#000000"> &#160;Declarations</text>
<polygon fill="#8dd3c7" stroke="transparent" points="231,-10 231,-30 251,-30 251,-10 231,-10"/>
<text text-anchor="start" x="254.7251" y="-15.4" font-family="sans-serif" font-size="14.00" fill="#000000"> &#160;Module</text>
<polygon fill="#80b1d3" stroke="transparent" points="317,-10 317,-30 337,-30 337,-10 317,-10"/>
<text text-anchor="start" x="340.7812" y="-15.4" font-family="sans-serif" font-size="14.00" fill="#000000"> &#160;Bootstrap</text>
<polygon fill="#fdb462" stroke="transparent" points="414,-10 414,-30 434,-30 434,-10 414,-10"/>
<text text-anchor="start" x="437.6732" y="-15.4" font-family="sans-serif" font-size="14.00" fill="#000000"> &#160;Providers</text>
<polygon fill="#fb8072" stroke="transparent" points="510,-10 510,-30 530,-30 530,-10 510,-10"/>
<text text-anchor="start" x="533.7258" y="-15.4" font-family="sans-serif" font-size="14.00" fill="#000000"> &#160;Exports</text>
<g id="clust1" class="cluster">
<title>cluster_Vnas2UiCommonsModule</title>
<polygon fill="none" stroke="#000000" stroke-dasharray="1,5" points="8,-70 8,-268 696,-268 696,-70 8,-70"/>
</g>
<g id="clust2" class="cluster">
<title>cluster_Vnas2UiCommonsModule_declarations</title>
<polygon fill="none" stroke="#000000" points="146,-78 146,-130 688,-130 688,-78 146,-78"/>
</g>
<g id="clust7" class="cluster">
<title>cluster_Vnas2UiCommonsModule_imports</title>
<polygon fill="none" stroke="#000000" points="16,-78 16,-130 138,-130 138,-78 16,-78"/>
</g>
<g id="clust8" class="cluster">
<title>cluster_Vnas2UiCommonsModule_exports</title>
<polygon fill="none" stroke="#000000" points="73,-208 73,-260 631,-260 631,-208 73,-208"/>
</g>
<!-- CountDatePipe -->
<g id="node1" class="node">
<title>CountDatePipe</title>
<polygon fill="#ffffb3" stroke="#000000" points="679.5424,-122 578.4576,-122 578.4576,-86 679.5424,-86 679.5424,-122"/>
<text text-anchor="middle" x="629" y="-99.8" font-family="Times,serif" font-size="14.00" fill="#000000">CountDatePipe</text>
</g>
<!-- Vnas2UiCommonsModule -->
<g id="node5" class="node">
<title>Vnas2UiCommonsModule</title>
<polygon fill="#8dd3c7" stroke="#000000" points="408.3752,-187 405.3752,-191 384.3752,-191 381.3752,-187 241.6248,-187 241.6248,-151 408.3752,-151 408.3752,-187"/>
<text text-anchor="middle" x="325" y="-164.8" font-family="Times,serif" font-size="14.00" fill="#000000">Vnas2UiCommonsModule</text>
</g>
<!-- CountDatePipe&#45;&gt;Vnas2UiCommonsModule -->
<g id="edge1" class="edge">
<title>CountDatePipe&#45;&gt;Vnas2UiCommonsModule</title>
<path fill="none" stroke="#000000" d="M600.375,-122.0225C600.375,-139.3734 600.375,-163 600.375,-163 600.375,-163 418.7432,-163 418.7432,-163"/>
<polygon fill="#000000" stroke="#000000" points="418.7432,-159.5001 408.7432,-163 418.7431,-166.5001 418.7432,-159.5001"/>
</g>
<!-- DefaultImageDirective -->
<g id="node2" class="node">
<title>DefaultImageDirective</title>
<polygon fill="#ffffb3" stroke="#000000" points="560.5408,-122 415.4592,-122 415.4592,-86 560.5408,-86 560.5408,-122"/>
<text text-anchor="middle" x="488" y="-99.8" font-family="Times,serif" font-size="14.00" fill="#000000">DefaultImageDirective</text>
</g>
<!-- DefaultImageDirective&#45;&gt;Vnas2UiCommonsModule -->
<g id="edge2" class="edge">
<title>DefaultImageDirective&#45;&gt;Vnas2UiCommonsModule</title>
<path fill="none" stroke="#000000" d="M415.3296,-104C407.9925,-104 403.1764,-104 403.1764,-104 403.1764,-104 403.1764,-140.8939 403.1764,-140.8939"/>
<polygon fill="#000000" stroke="#000000" points="399.6765,-140.8938 403.1764,-150.8939 406.6765,-140.8939 399.6765,-140.8938"/>
</g>
<!-- RenderDebugDirective -->
<g id="node3" class="node">
<title>RenderDebugDirective</title>
<polygon fill="#ffffb3" stroke="#000000" points="397.8305,-122 252.1695,-122 252.1695,-86 397.8305,-86 397.8305,-122"/>
<text text-anchor="middle" x="325" y="-99.8" font-family="Times,serif" font-size="14.00" fill="#000000">RenderDebugDirective</text>
</g>
<!-- RenderDebugDirective&#45;&gt;Vnas2UiCommonsModule -->
<g id="edge3" class="edge">
<title>RenderDebugDirective&#45;&gt;Vnas2UiCommonsModule</title>
<path fill="none" stroke="#000000" d="M325,-122.1061C325,-122.1061 325,-140.991 325,-140.991"/>
<polygon fill="#000000" stroke="#000000" points="321.5001,-140.9909 325,-150.991 328.5001,-140.991 321.5001,-140.9909"/>
</g>
<!-- SortByPipe -->
<g id="node4" class="node">
<title>SortByPipe</title>
<polygon fill="#ffffb3" stroke="#000000" points="234.0594,-122 153.9406,-122 153.9406,-86 234.0594,-86 234.0594,-122"/>
<text text-anchor="middle" x="194" y="-99.8" font-family="Times,serif" font-size="14.00" fill="#000000">SortByPipe</text>
</g>
<!-- SortByPipe&#45;&gt;Vnas2UiCommonsModule -->
<g id="edge4" class="edge">
<title>SortByPipe&#45;&gt;Vnas2UiCommonsModule</title>
<path fill="none" stroke="#000000" d="M234.3051,-104C241.5353,-104 246.8236,-104 246.8236,-104 246.8236,-104 246.8236,-140.8939 246.8236,-140.8939"/>
<polygon fill="#000000" stroke="#000000" points="243.3237,-140.8938 246.8236,-150.8939 250.3237,-140.8939 243.3237,-140.8938"/>
</g>
<!-- CountDatePipe  -->
<g id="node7" class="node">
<title>CountDatePipe </title>
<polygon fill="#fb8072" stroke="#000000" points="622.5414,-252 517.4586,-252 517.4586,-216 622.5414,-216 622.5414,-252"/>
<text text-anchor="middle" x="570" y="-229.8" font-family="Times,serif" font-size="14.00" fill="#000000">CountDatePipe </text>
</g>
<!-- Vnas2UiCommonsModule&#45;&gt;CountDatePipe  -->
<g id="edge6" class="edge">
<title>Vnas2UiCommonsModule&#45;&gt;CountDatePipe </title>
<path fill="none" stroke="#000000" stroke-dasharray="5,2" d="M408.6574,-175C468.6781,-175 538.9999,-175 538.9999,-175 538.9999,-175 538.9999,-205.9775 538.9999,-205.9775"/>
<polygon fill="#000000" stroke="#000000" points="535.4999,-205.9774 538.9999,-215.9775 542.4999,-205.9775 535.4999,-205.9774"/>
</g>
<!-- DefaultImageDirective  -->
<g id="node8" class="node">
<title>DefaultImageDirective </title>
<polygon fill="#fb8072" stroke="#000000" points="499.0415,-252 350.9585,-252 350.9585,-216 499.0415,-216 499.0415,-252"/>
<text text-anchor="middle" x="425" y="-229.8" font-family="Times,serif" font-size="14.00" fill="#000000">DefaultImageDirective </text>
</g>
<!-- Vnas2UiCommonsModule&#45;&gt;DefaultImageDirective  -->
<g id="edge7" class="edge">
<title>Vnas2UiCommonsModule&#45;&gt;DefaultImageDirective </title>
<path fill="none" stroke="#000000" stroke-dasharray="5,2" d="M379.5836,-187.1061C379.5836,-187.1061 379.5836,-205.991 379.5836,-205.991"/>
<polygon fill="#000000" stroke="#000000" points="376.0837,-205.9909 379.5836,-215.991 383.0837,-205.991 376.0837,-205.9909"/>
</g>
<!-- RenderDebugDirective  -->
<g id="node9" class="node">
<title>RenderDebugDirective </title>
<polygon fill="#fb8072" stroke="#000000" points="332.8308,-252 183.1692,-252 183.1692,-216 332.8308,-216 332.8308,-252"/>
<text text-anchor="middle" x="258" y="-229.8" font-family="Times,serif" font-size="14.00" fill="#000000">RenderDebugDirective </text>
</g>
<!-- Vnas2UiCommonsModule&#45;&gt;RenderDebugDirective  -->
<g id="edge8" class="edge">
<title>Vnas2UiCommonsModule&#45;&gt;RenderDebugDirective </title>
<path fill="none" stroke="#000000" stroke-dasharray="5,2" d="M287.1138,-187.1061C287.1138,-187.1061 287.1138,-205.991 287.1138,-205.991"/>
<polygon fill="#000000" stroke="#000000" points="283.6139,-205.9909 287.1138,-215.991 290.6139,-205.991 283.6139,-205.9909"/>
</g>
<!-- SortByPipe  -->
<g id="node10" class="node">
<title>SortByPipe </title>
<polygon fill="#fb8072" stroke="#000000" points="165.0582,-252 80.9418,-252 80.9418,-216 165.0582,-216 165.0582,-252"/>
<text text-anchor="middle" x="123" y="-229.8" font-family="Times,serif" font-size="14.00" fill="#000000">SortByPipe </text>
</g>
<!-- Vnas2UiCommonsModule&#45;&gt;SortByPipe  -->
<g id="edge9" class="edge">
<title>Vnas2UiCommonsModule&#45;&gt;SortByPipe </title>
<path fill="none" stroke="#000000" stroke-dasharray="5,2" d="M241.2171,-175C200.1368,-175 159.375,-175 159.375,-175 159.375,-175 159.375,-205.9775 159.375,-205.9775"/>
<polygon fill="#000000" stroke="#000000" points="155.8751,-205.9774 159.375,-215.9775 162.8751,-205.9775 155.8751,-205.9774"/>
</g>
<!-- MaterialModule -->
<g id="node6" class="node">
<title>MaterialModule</title>
<polygon fill="#8dd3c7" stroke="#000000" points="130.4706,-122 127.4706,-126 106.4706,-126 103.4706,-122 23.5294,-122 23.5294,-86 130.4706,-86 130.4706,-122"/>
<text text-anchor="middle" x="77" y="-99.8" font-family="Times,serif" font-size="14.00" fill="#000000">MaterialModule</text>
</g>
<!-- MaterialModule&#45;&gt;Vnas2UiCommonsModule -->
<g id="edge5" class="edge">
<title>MaterialModule&#45;&gt;Vnas2UiCommonsModule</title>
<path fill="none" stroke="#000000" d="M105.7281,-122.0225C105.7281,-139.3734 105.7281,-163 105.7281,-163 105.7281,-163 231.4772,-163 231.4772,-163"/>
<polygon fill="#000000" stroke="#000000" points="231.4772,-166.5001 241.4772,-163 231.4771,-159.5001 231.4772,-166.5001"/>
</g>
</g>
</svg>
