<?xml version="1.0" encoding="UTF-8" standalone="no"?>
<!DOCTYPE svg PUBLIC "-//W3C//DTD SVG 1.1//EN"
 "http://www.w3.org/Graphics/SVG/1.1/DTD/svg11.dtd">
<!-- Generated by graphviz version 2.40.1 (20161225.0304)
 -->
<!-- Title: dependencies Pages: 1 -->
<svg width="2693pt" height="284pt"
 viewBox="0.00 0.00 2693.00 284.00" xmlns="http://www.w3.org/2000/svg" xmlns:xlink="http://www.w3.org/1999/xlink">
<g id="graph0" class="graph" transform="scale(1 1) rotate(0) translate(4 280)">
<title>dependencies</title>
<polygon fill="#ffffff" stroke="transparent" points="-4,4 -4,-280 2689,-280 2689,4 -4,4"/>
<text text-anchor="start" x="1321.5091" y="-42.4" font-family="sans-serif" font-weight="bold" font-size="14.00" fill="#000000">Legend</text>
<polygon fill="#ffffb3" stroke="transparent" points="1108.5,-10 1108.5,-30 1128.5,-30 1128.5,-10 1108.5,-10"/>
<text text-anchor="start" x="1132.129" y="-15.4" font-family="sans-serif" font-size="14.00" fill="#000000"> &#160;Declarations</text>
<polygon fill="#8dd3c7" stroke="transparent" points="1221.5,-10 1221.5,-30 1241.5,-30 1241.5,-10 1221.5,-10"/>
<text text-anchor="start" x="1245.2251" y="-15.4" font-family="sans-serif" font-size="14.00" fill="#000000"> &#160;Module</text>
<polygon fill="#80b1d3" stroke="transparent" points="1307.5,-10 1307.5,-30 1327.5,-30 1327.5,-10 1307.5,-10"/>
<text text-anchor="start" x="1331.2812" y="-15.4" font-family="sans-serif" font-size="14.00" fill="#000000"> &#160;Bootstrap</text>
<polygon fill="#fdb462" stroke="transparent" points="1404.5,-10 1404.5,-30 1424.5,-30 1424.5,-10 1404.5,-10"/>
<text text-anchor="start" x="1428.1732" y="-15.4" font-family="sans-serif" font-size="14.00" fill="#000000"> &#160;Providers</text>
<polygon fill="#fb8072" stroke="transparent" points="1500.5,-10 1500.5,-30 1520.5,-30 1520.5,-10 1500.5,-10"/>
<text text-anchor="start" x="1524.2258" y="-15.4" font-family="sans-serif" font-size="14.00" fill="#000000"> &#160;Exports</text>
<g id="clust1" class="cluster">
<title>cluster_Vnas2UiCommonsModule</title>
<polygon fill="none" stroke="#000000" stroke-dasharray="1,5" points="8,-70 8,-268 2677,-268 2677,-70 8,-70"/>
</g>
<g id="clust2" class="cluster">
<title>cluster_Vnas2UiCommonsModule_declarations</title>
<polygon fill="none" stroke="#000000" points="146,-78 146,-130 2669,-130 2669,-78 146,-78"/>
</g>
<g id="clust17" class="cluster">
<title>cluster_Vnas2UiCommonsModule_imports</title>
<polygon fill="none" stroke="#000000" points="16,-78 16,-130 138,-130 138,-78 16,-78"/>
</g>
<g id="clust18" class="cluster">
<title>cluster_Vnas2UiCommonsModule_exports</title>
<polygon fill="none" stroke="#000000" points="58,-208 58,-260 2627,-260 2627,-208 58,-208"/>
</g>
<!-- CategoryOrganizationComponent -->
<g id="node1" class="node">
<title>CategoryOrganizationComponent</title>
<polygon fill="#ffffb3" stroke="#000000" points="2660.7324,-122 2455.2676,-122 2455.2676,-86 2660.7324,-86 2660.7324,-122"/>
<text text-anchor="middle" x="2558" y="-99.8" font-family="Times,serif" font-size="14.00" fill="#000000">CategoryOrganizationComponent</text>
</g>
<!-- Vnas2UiCommonsModule -->
<g id="node15" class="node">
<title>Vnas2UiCommonsModule</title>
<polygon fill="#8dd3c7" stroke="#000000" points="1376.3752,-187 1373.3752,-191 1352.3752,-191 1349.3752,-187 1209.6248,-187 1209.6248,-151 1376.3752,-151 1376.3752,-187"/>
<text text-anchor="middle" x="1293" y="-164.8" font-family="Times,serif" font-size="14.00" fill="#000000">Vnas2UiCommonsModule</text>
</g>
<!-- CategoryOrganizationComponent&#45;&gt;Vnas2UiCommonsModule -->
<g id="edge1" class="edge">
<title>CategoryOrganizationComponent&#45;&gt;Vnas2UiCommonsModule</title>
<path fill="none" stroke="#000000" d="M2536.875,-122.1686C2536.875,-141.0898 2536.875,-168 2536.875,-168 2536.875,-168 1386.5456,-168 1386.5456,-168"/>
<polygon fill="#000000" stroke="#000000" points="1386.5456,-164.5001 1376.5456,-168 1386.5456,-171.5001 1386.5456,-164.5001"/>
</g>
<!-- CountDatePipe -->
<g id="node2" class="node">
<title>CountDatePipe</title>
<polygon fill="#ffffb3" stroke="#000000" points="2436.5424,-122 2335.4576,-122 2335.4576,-86 2436.5424,-86 2436.5424,-122"/>
<text text-anchor="middle" x="2386" y="-99.8" font-family="Times,serif" font-size="14.00" fill="#000000">CountDatePipe</text>
</g>
<!-- CountDatePipe&#45;&gt;Vnas2UiCommonsModule -->
<g id="edge2" class="edge">
<title>CountDatePipe&#45;&gt;Vnas2UiCommonsModule</title>
<path fill="none" stroke="#000000" d="M2363.375,-122.302C2363.375,-140.2699 2363.375,-165 2363.375,-165 2363.375,-165 1386.5447,-165 1386.5447,-165"/>
<polygon fill="#000000" stroke="#000000" points="1386.5447,-161.5001 1376.5447,-165 1386.5447,-168.5001 1386.5447,-161.5001"/>
</g>
<!-- DailyNewsComponent -->
<g id="node3" class="node">
<title>DailyNewsComponent</title>
<polygon fill="#ffffb3" stroke="#000000" points="2317.3075,-122 2172.6925,-122 2172.6925,-86 2317.3075,-86 2317.3075,-122"/>
<text text-anchor="middle" x="2245" y="-99.8" font-family="Times,serif" font-size="14.00" fill="#000000">DailyNewsComponent</text>
</g>
<!-- DailyNewsComponent&#45;&gt;Vnas2UiCommonsModule -->
<g id="edge3" class="edge">
<title>DailyNewsComponent&#45;&gt;Vnas2UiCommonsModule</title>
<path fill="none" stroke="#000000" d="M2220.875,-122.0225C2220.875,-139.3734 2220.875,-163 2220.875,-163 2220.875,-163 1386.5688,-163 1386.5688,-163"/>
<polygon fill="#000000" stroke="#000000" points="1386.5689,-159.5001 1376.5688,-163 1386.5688,-166.5001 1386.5689,-159.5001"/>
</g>
<!-- DefaultImageDirective -->
<g id="node4" class="node">
<title>DefaultImageDirective</title>
<polygon fill="#ffffb3" stroke="#000000" points="2154.5408,-122 2009.4592,-122 2009.4592,-86 2154.5408,-86 2154.5408,-122"/>
<text text-anchor="middle" x="2082" y="-99.8" font-family="Times,serif" font-size="14.00" fill="#000000">DefaultImageDirective</text>
</g>
<!-- DefaultImageDirective&#45;&gt;Vnas2UiCommonsModule -->
<g id="edge4" class="edge">
<title>DefaultImageDirective&#45;&gt;Vnas2UiCommonsModule</title>
<path fill="none" stroke="#000000" d="M2056.375,-122.027C2056.375,-138.3976 2056.375,-160 2056.375,-160 2056.375,-160 1386.5126,-160 1386.5126,-160"/>
<polygon fill="#000000" stroke="#000000" points="1386.5126,-156.5001 1376.5126,-160 1386.5126,-163.5001 1386.5126,-156.5001"/>
</g>
<!-- FormSearchNewsAdvancedComponent -->
<g id="node5" class="node">
<title>FormSearchNewsAdvancedComponent</title>
<polygon fill="#ffffb3" stroke="#000000" points="1991.3763,-122 1752.6237,-122 1752.6237,-86 1991.3763,-86 1991.3763,-122"/>
<text text-anchor="middle" x="1872" y="-99.8" font-family="Times,serif" font-size="14.00" fill="#000000">FormSearchNewsAdvancedComponent</text>
</g>
<!-- FormSearchNewsAdvancedComponent&#45;&gt;Vnas2UiCommonsModule -->
<g id="edge5" class="edge">
<title>FormSearchNewsAdvancedComponent&#45;&gt;Vnas2UiCommonsModule</title>
<path fill="none" stroke="#000000" d="M1844.875,-122.2396C1844.875,-137.5706 1844.875,-157 1844.875,-157 1844.875,-157 1386.5182,-157 1386.5182,-157"/>
<polygon fill="#000000" stroke="#000000" points="1386.5182,-153.5001 1376.5182,-157 1386.5181,-160.5001 1386.5182,-153.5001"/>
</g>
<!-- HighLightActionsComponent -->
<g id="node6" class="node">
<title>HighLightActionsComponent</title>
<polygon fill="#ffffb3" stroke="#000000" points="1734.7105,-122 1551.2895,-122 1551.2895,-86 1734.7105,-86 1734.7105,-122"/>
<text text-anchor="middle" x="1643" y="-99.8" font-family="Times,serif" font-size="14.00" fill="#000000">HighLightActionsComponent</text>
</g>
<!-- HighLightActionsComponent&#45;&gt;Vnas2UiCommonsModule -->
<g id="edge6" class="edge">
<title>HighLightActionsComponent&#45;&gt;Vnas2UiCommonsModule</title>
<path fill="none" stroke="#000000" d="M1614.375,-122.0511C1614.375,-136.373 1614.375,-154 1614.375,-154 1614.375,-154 1386.5986,-154 1386.5986,-154"/>
<polygon fill="#000000" stroke="#000000" points="1386.5986,-150.5001 1376.5986,-154 1386.5985,-157.5001 1386.5986,-150.5001"/>
</g>
<!-- ListObjectsComponent -->
<g id="node7" class="node">
<title>ListObjectsComponent</title>
<polygon fill="#ffffb3" stroke="#000000" points="1532.8725,-122 1387.1275,-122 1387.1275,-86 1532.8725,-86 1532.8725,-122"/>
<text text-anchor="middle" x="1460" y="-99.8" font-family="Times,serif" font-size="14.00" fill="#000000">ListObjectsComponent</text>
</g>
<!-- ListObjectsComponent&#45;&gt;Vnas2UiCommonsModule -->
<g id="edge7" class="edge">
<title>ListObjectsComponent&#45;&gt;Vnas2UiCommonsModule</title>
<path fill="none" stroke="#000000" d="M1386.9866,-104C1378.3581,-104 1372.5453,-104 1372.5453,-104 1372.5453,-104 1372.5453,-140.8939 1372.5453,-140.8939"/>
<polygon fill="#000000" stroke="#000000" points="1369.0453,-140.8938 1372.5453,-150.8939 1376.0453,-140.8939 1369.0453,-140.8938"/>
</g>
<!-- NewsBasketComponent -->
<g id="node8" class="node">
<title>NewsBasketComponent</title>
<polygon fill="#ffffb3" stroke="#000000" points="1368.8061,-122 1217.1939,-122 1217.1939,-86 1368.8061,-86 1368.8061,-122"/>
<text text-anchor="middle" x="1293" y="-99.8" font-family="Times,serif" font-size="14.00" fill="#000000">NewsBasketComponent</text>
</g>
<!-- NewsBasketComponent&#45;&gt;Vnas2UiCommonsModule -->
<g id="edge8" class="edge">
<title>NewsBasketComponent&#45;&gt;Vnas2UiCommonsModule</title>
<path fill="none" stroke="#000000" d="M1293,-122.1061C1293,-122.1061 1293,-140.991 1293,-140.991"/>
<polygon fill="#000000" stroke="#000000" points="1289.5001,-140.9909 1293,-150.991 1296.5001,-140.991 1289.5001,-140.9909"/>
</g>
<!-- NewsSummaryComponent -->
<g id="node9" class="node">
<title>NewsSummaryComponent</title>
<polygon fill="#ffffb3" stroke="#000000" points="1199.6442,-122 1032.3558,-122 1032.3558,-86 1199.6442,-86 1199.6442,-122"/>
<text text-anchor="middle" x="1116" y="-99.8" font-family="Times,serif" font-size="14.00" fill="#000000">NewsSummaryComponent</text>
</g>
<!-- NewsSummaryComponent&#45;&gt;Vnas2UiCommonsModule -->
<g id="edge9" class="edge">
<title>NewsSummaryComponent&#45;&gt;Vnas2UiCommonsModule</title>
<path fill="none" stroke="#000000" d="M1199.9041,-104C1208.1014,-104 1213.4547,-104 1213.4547,-104 1213.4547,-104 1213.4547,-140.8939 1213.4547,-140.8939"/>
<polygon fill="#000000" stroke="#000000" points="1209.9548,-140.8938 1213.4547,-150.8939 1216.9548,-140.8939 1209.9548,-140.8938"/>
</g>
<!-- NewsWithDomainComponent -->
<g id="node10" class="node">
<title>NewsWithDomainComponent</title>
<polygon fill="#ffffb3" stroke="#000000" points="1014.3032,-122 827.6968,-122 827.6968,-86 1014.3032,-86 1014.3032,-122"/>
<text text-anchor="middle" x="921" y="-99.8" font-family="Times,serif" font-size="14.00" fill="#000000">NewsWithDomainComponent</text>
</g>
<!-- NewsWithDomainComponent&#45;&gt;Vnas2UiCommonsModule -->
<g id="edge10" class="edge">
<title>NewsWithDomainComponent&#45;&gt;Vnas2UiCommonsModule</title>
<path fill="none" stroke="#000000" d="M987.7898,-122.0511C987.7898,-136.373 987.7898,-154 987.7898,-154 987.7898,-154 1199.6,-154 1199.6,-154"/>
<polygon fill="#000000" stroke="#000000" points="1199.6,-157.5001 1209.6,-154 1199.5999,-150.5001 1199.6,-157.5001"/>
</g>
<!-- PagingCommonComponent -->
<g id="node11" class="node">
<title>PagingCommonComponent</title>
<polygon fill="#ffffb3" stroke="#000000" points="810.3383,-122 637.6617,-122 637.6617,-86 810.3383,-86 810.3383,-122"/>
<text text-anchor="middle" x="724" y="-99.8" font-family="Times,serif" font-size="14.00" fill="#000000">PagingCommonComponent</text>
</g>
<!-- PagingCommonComponent&#45;&gt;Vnas2UiCommonsModule -->
<g id="edge11" class="edge">
<title>PagingCommonComponent&#45;&gt;Vnas2UiCommonsModule</title>
<path fill="none" stroke="#000000" d="M782.1338,-122.2396C782.1338,-137.5706 782.1338,-157 782.1338,-157 782.1338,-157 1199.4984,-157 1199.4984,-157"/>
<polygon fill="#000000" stroke="#000000" points="1199.4984,-160.5001 1209.4984,-157 1199.4983,-153.5001 1199.4984,-160.5001"/>
</g>
<!-- RenderDebugDirective -->
<g id="node12" class="node">
<title>RenderDebugDirective</title>
<polygon fill="#ffffb3" stroke="#000000" points="619.8305,-122 474.1695,-122 474.1695,-86 619.8305,-86 619.8305,-122"/>
<text text-anchor="middle" x="547" y="-99.8" font-family="Times,serif" font-size="14.00" fill="#000000">RenderDebugDirective</text>
</g>
<!-- RenderDebugDirective&#45;&gt;Vnas2UiCommonsModule -->
<g id="edge12" class="edge">
<title>RenderDebugDirective&#45;&gt;Vnas2UiCommonsModule</title>
<path fill="none" stroke="#000000" d="M589.9981,-122.027C589.9981,-138.3976 589.9981,-160 589.9981,-160 589.9981,-160 1199.5958,-160 1199.5958,-160"/>
<polygon fill="#000000" stroke="#000000" points="1199.5958,-163.5001 1209.5958,-160 1199.5958,-156.5001 1199.5958,-163.5001"/>
</g>
<!-- SortByPipe -->
<g id="node13" class="node">
<title>SortByPipe</title>
<polygon fill="#ffffb3" stroke="#000000" points="456.0594,-122 375.9406,-122 375.9406,-86 456.0594,-86 456.0594,-122"/>
<text text-anchor="middle" x="416" y="-99.8" font-family="Times,serif" font-size="14.00" fill="#000000">SortByPipe</text>
</g>
<!-- SortByPipe&#45;&gt;Vnas2UiCommonsModule -->
<g id="edge13" class="edge">
<title>SortByPipe&#45;&gt;Vnas2UiCommonsModule</title>
<path fill="none" stroke="#000000" d="M424.307,-122.0225C424.307,-139.3734 424.307,-163 424.3069,-163 424.3069,-163 1199.3118,-163 1199.3118,-163"/>
<polygon fill="#000000" stroke="#000000" points="1199.3118,-166.5001 1209.3118,-163 1199.3118,-159.5001 1199.3118,-166.5001"/>
</g>
<!-- TreeCategoryVerticalComponent -->
<g id="node14" class="node">
<title>TreeCategoryVerticalComponent</title>
<polygon fill="#ffffb3" stroke="#000000" points="357.8749,-122 154.1251,-122 154.1251,-86 357.8749,-86 357.8749,-122"/>
<text text-anchor="middle" x="256" y="-99.8" font-family="Times,serif" font-size="14.00" fill="#000000">TreeCategoryVerticalComponent</text>
</g>
<!-- TreeCategoryVerticalComponent&#45;&gt;Vnas2UiCommonsModule -->
<g id="edge14" class="edge">
<title>TreeCategoryVerticalComponent&#45;&gt;Vnas2UiCommonsModule</title>
<path fill="none" stroke="#000000" d="M323.8291,-122.302C323.8291,-140.2699 323.8291,-165 323.8291,-165 323.8291,-165 1199.5302,-165 1199.5302,-165"/>
<polygon fill="#000000" stroke="#000000" points="1199.5302,-168.5001 1209.5302,-165 1199.5302,-161.5001 1199.5302,-168.5001"/>
</g>
<!-- CategoryOrganizationComponent  -->
<g id="node17" class="node">
<title>CategoryOrganizationComponent </title>
<polygon fill="#fb8072" stroke="#000000" points="2618.7323,-252 2409.2677,-252 2409.2677,-216 2618.7323,-216 2618.7323,-252"/>
<text text-anchor="middle" x="2514" y="-229.8" font-family="Times,serif" font-size="14.00" fill="#000000">CategoryOrganizationComponent </text>
</g>
<!-- Vnas2UiCommonsModule&#45;&gt;CategoryOrganizationComponent  -->
<g id="edge16" class="edge">
<title>Vnas2UiCommonsModule&#45;&gt;CategoryOrganizationComponent </title>
<path fill="none" stroke="#000000" stroke-dasharray="5,2" d="M1376.5562,-171C1637.9948,-171 2423.0773,-171 2423.0773,-171 2423.0773,-171 2423.0773,-205.7778 2423.0773,-205.7778"/>
<polygon fill="#000000" stroke="#000000" points="2419.5774,-205.7778 2423.0773,-215.7778 2426.5774,-205.7778 2419.5774,-205.7778"/>
</g>
<!-- CountDatePipe  -->
<g id="node18" class="node">
<title>CountDatePipe </title>
<polygon fill="#fb8072" stroke="#000000" points="2391.5414,-252 2286.4586,-252 2286.4586,-216 2391.5414,-216 2391.5414,-252"/>
<text text-anchor="middle" x="2339" y="-229.8" font-family="Times,serif" font-size="14.00" fill="#000000">CountDatePipe </text>
</g>
<!-- Vnas2UiCommonsModule&#45;&gt;CountDatePipe  -->
<g id="edge17" class="edge">
<title>Vnas2UiCommonsModule&#45;&gt;CountDatePipe </title>
<path fill="none" stroke="#000000" stroke-dasharray="5,2" d="M1376.414,-174C1618.1136,-174 2301.8165,-174 2301.8165,-174 2301.8165,-174 2301.8165,-205.998 2301.8165,-205.998"/>
<polygon fill="#000000" stroke="#000000" points="2298.3165,-205.998 2301.8165,-215.998 2305.3165,-205.9981 2298.3165,-205.998"/>
</g>
<!-- DailyNewsComponent  -->
<g id="node19" class="node">
<title>DailyNewsComponent </title>
<polygon fill="#fb8072" stroke="#000000" points="2268.8073,-252 2121.1927,-252 2121.1927,-216 2268.8073,-216 2268.8073,-252"/>
<text text-anchor="middle" x="2195" y="-229.8" font-family="Times,serif" font-size="14.00" fill="#000000">DailyNewsComponent </text>
</g>
<!-- Vnas2UiCommonsModule&#45;&gt;DailyNewsComponent  -->
<g id="edge18" class="edge">
<title>Vnas2UiCommonsModule&#45;&gt;DailyNewsComponent </title>
<path fill="none" stroke="#000000" stroke-dasharray="5,2" d="M1376.7034,-176C1590.1123,-176 2137.8084,-176 2137.8084,-176 2137.8084,-176 2137.8084,-205.9664 2137.8084,-205.9664"/>
<polygon fill="#000000" stroke="#000000" points="2134.3085,-205.9663 2137.8084,-215.9664 2141.3085,-205.9664 2134.3085,-205.9663"/>
</g>
<!-- DefaultImageDirective  -->
<g id="node20" class="node">
<title>DefaultImageDirective </title>
<polygon fill="#fb8072" stroke="#000000" points="2103.0415,-252 1954.9585,-252 1954.9585,-216 2103.0415,-216 2103.0415,-252"/>
<text text-anchor="middle" x="2029" y="-229.8" font-family="Times,serif" font-size="14.00" fill="#000000">DefaultImageDirective </text>
</g>
<!-- Vnas2UiCommonsModule&#45;&gt;DefaultImageDirective  -->
<g id="edge19" class="edge">
<title>Vnas2UiCommonsModule&#45;&gt;DefaultImageDirective </title>
<path fill="none" stroke="#000000" stroke-dasharray="5,2" d="M1376.3763,-179C1557.9449,-179 1972.9588,-179 1972.9588,-179 1972.9588,-179 1972.9588,-205.9909 1972.9588,-205.9909"/>
<polygon fill="#000000" stroke="#000000" points="1969.4589,-205.9909 1972.9588,-215.9909 1976.4589,-205.991 1969.4589,-205.9909"/>
</g>
<!-- FormSearchNewsAdvancedComponent  -->
<g id="node21" class="node">
<title>FormSearchNewsAdvancedComponent </title>
<polygon fill="#fb8072" stroke="#000000" points="1936.876,-252 1695.124,-252 1695.124,-216 1936.876,-216 1936.876,-252"/>
<text text-anchor="middle" x="1816" y="-229.8" font-family="Times,serif" font-size="14.00" fill="#000000">FormSearchNewsAdvancedComponent </text>
</g>
<!-- Vnas2UiCommonsModule&#45;&gt;FormSearchNewsAdvancedComponent  -->
<g id="edge20" class="edge">
<title>Vnas2UiCommonsModule&#45;&gt;FormSearchNewsAdvancedComponent </title>
<path fill="none" stroke="#000000" stroke-dasharray="5,2" d="M1376.5928,-182C1499.5703,-182 1714.8336,-182 1714.8336,-182 1714.8336,-182 1714.8336,-205.8129 1714.8336,-205.8129"/>
<polygon fill="#000000" stroke="#000000" points="1711.3337,-205.8129 1714.8336,-215.8129 1718.3337,-205.813 1711.3337,-205.8129"/>
</g>
<!-- HighLightActionsComponent  -->
<g id="node22" class="node">
<title>HighLightActionsComponent </title>
<polygon fill="#fb8072" stroke="#000000" points="1677.2106,-252 1490.7894,-252 1490.7894,-216 1677.2106,-216 1677.2106,-252"/>
<text text-anchor="middle" x="1584" y="-229.8" font-family="Times,serif" font-size="14.00" fill="#000000">HighLightActionsComponent </text>
</g>
<!-- Vnas2UiCommonsModule&#45;&gt;HighLightActionsComponent  -->
<g id="edge21" class="edge">
<title>Vnas2UiCommonsModule&#45;&gt;HighLightActionsComponent </title>
<path fill="none" stroke="#000000" stroke-dasharray="5,2" d="M1376.6518,-185C1438.4172,-185 1511.7905,-185 1511.7905,-185 1511.7905,-185 1511.7905,-205.7542 1511.7905,-205.7542"/>
<polygon fill="#000000" stroke="#000000" points="1508.2906,-205.7542 1511.7905,-215.7542 1515.2906,-205.7542 1508.2906,-205.7542"/>
</g>
<!-- ListObjectsComponent  -->
<g id="node23" class="node">
<title>ListObjectsComponent </title>
<polygon fill="#fb8072" stroke="#000000" points="1472.8729,-252 1323.1271,-252 1323.1271,-216 1472.8729,-216 1472.8729,-252"/>
<text text-anchor="middle" x="1398" y="-229.8" font-family="Times,serif" font-size="14.00" fill="#000000">ListObjectsComponent </text>
</g>
<!-- Vnas2UiCommonsModule&#45;&gt;ListObjectsComponent  -->
<g id="edge22" class="edge">
<title>Vnas2UiCommonsModule&#45;&gt;ListObjectsComponent </title>
<path fill="none" stroke="#000000" stroke-dasharray="5,2" d="M1349.8757,-187.1061C1349.8757,-187.1061 1349.8757,-205.991 1349.8757,-205.991"/>
<polygon fill="#000000" stroke="#000000" points="1346.3758,-205.9909 1349.8757,-215.991 1353.3758,-205.991 1346.3758,-205.9909"/>
</g>
<!-- NewsBasketComponent  -->
<g id="node24" class="node">
<title>NewsBasketComponent </title>
<polygon fill="#fb8072" stroke="#000000" points="1305.3059,-252 1150.6941,-252 1150.6941,-216 1305.3059,-216 1305.3059,-252"/>
<text text-anchor="middle" x="1228" y="-229.8" font-family="Times,serif" font-size="14.00" fill="#000000">NewsBasketComponent </text>
</g>
<!-- Vnas2UiCommonsModule&#45;&gt;NewsBasketComponent  -->
<g id="edge23" class="edge">
<title>Vnas2UiCommonsModule&#45;&gt;NewsBasketComponent </title>
<path fill="none" stroke="#000000" stroke-dasharray="5,2" d="M1257.4827,-187.1061C1257.4827,-187.1061 1257.4827,-205.991 1257.4827,-205.991"/>
<polygon fill="#000000" stroke="#000000" points="1253.9827,-205.9909 1257.4827,-215.991 1260.9827,-205.991 1253.9827,-205.9909"/>
</g>
<!-- NewsSummaryComponent  -->
<g id="node25" class="node">
<title>NewsSummaryComponent </title>
<polygon fill="#fb8072" stroke="#000000" points="1132.6439,-252 961.3561,-252 961.3561,-216 1132.6439,-216 1132.6439,-252"/>
<text text-anchor="middle" x="1047" y="-229.8" font-family="Times,serif" font-size="14.00" fill="#000000">NewsSummaryComponent </text>
</g>
<!-- Vnas2UiCommonsModule&#45;&gt;NewsSummaryComponent  -->
<g id="edge24" class="edge">
<title>Vnas2UiCommonsModule&#45;&gt;NewsSummaryComponent </title>
<path fill="none" stroke="#000000" stroke-dasharray="5,2" d="M1209.4529,-185C1150.6477,-185 1082.375,-185 1082.375,-185 1082.375,-185 1082.375,-205.7542 1082.375,-205.7542"/>
<polygon fill="#000000" stroke="#000000" points="1078.8751,-205.7542 1082.375,-215.7542 1085.8751,-205.7542 1078.8751,-205.7542"/>
</g>
<!-- NewsWithDomainComponent  -->
<g id="node26" class="node">
<title>NewsWithDomainComponent </title>
<polygon fill="#fb8072" stroke="#000000" points="943.8031,-252 754.1969,-252 754.1969,-216 943.8031,-216 943.8031,-252"/>
<text text-anchor="middle" x="849" y="-229.8" font-family="Times,serif" font-size="14.00" fill="#000000">NewsWithDomainComponent </text>
</g>
<!-- Vnas2UiCommonsModule&#45;&gt;NewsWithDomainComponent  -->
<g id="edge25" class="edge">
<title>Vnas2UiCommonsModule&#45;&gt;NewsWithDomainComponent </title>
<path fill="none" stroke="#000000" stroke-dasharray="5,2" d="M1209.1371,-182C1089.9566,-182 885.875,-182 885.875,-182 885.875,-182 885.875,-205.8129 885.875,-205.8129"/>
<polygon fill="#000000" stroke="#000000" points="882.3751,-205.8129 885.875,-215.8129 889.3751,-205.813 882.3751,-205.8129"/>
</g>
<!-- PagingCommonComponent  -->
<g id="node27" class="node">
<title>PagingCommonComponent </title>
<polygon fill="#fb8072" stroke="#000000" points="735.8381,-252 560.1619,-252 560.1619,-216 735.8381,-216 735.8381,-252"/>
<text text-anchor="middle" x="648" y="-229.8" font-family="Times,serif" font-size="14.00" fill="#000000">PagingCommonComponent </text>
</g>
<!-- Vnas2UiCommonsModule&#45;&gt;PagingCommonComponent  -->
<g id="edge26" class="edge">
<title>Vnas2UiCommonsModule&#45;&gt;PagingCommonComponent </title>
<path fill="none" stroke="#000000" stroke-dasharray="5,2" d="M1209.3573,-179C1043.0813,-179 686.875,-179 686.875,-179 686.875,-179 686.875,-205.9909 686.875,-205.9909"/>
<polygon fill="#000000" stroke="#000000" points="683.3751,-205.9909 686.875,-215.9909 690.3751,-205.991 683.3751,-205.9909"/>
</g>
<!-- RenderDebugDirective  -->
<g id="node28" class="node">
<title>RenderDebugDirective </title>
<polygon fill="#fb8072" stroke="#000000" points="541.8308,-252 392.1692,-252 392.1692,-216 541.8308,-216 541.8308,-252"/>
<text text-anchor="middle" x="467" y="-229.8" font-family="Times,serif" font-size="14.00" fill="#000000">RenderDebugDirective </text>
</g>
<!-- Vnas2UiCommonsModule&#45;&gt;RenderDebugDirective  -->
<g id="edge27" class="edge">
<title>Vnas2UiCommonsModule&#45;&gt;RenderDebugDirective </title>
<path fill="none" stroke="#000000" stroke-dasharray="5,2" d="M1209.3499,-176C1007.0482,-176 507.875,-176 507.875,-176 507.875,-176 507.875,-205.9664 507.875,-205.9664"/>
<polygon fill="#000000" stroke="#000000" points="504.3751,-205.9663 507.875,-215.9664 511.3751,-205.9664 504.3751,-205.9663"/>
</g>
<!-- SortByPipe  -->
<g id="node29" class="node">
<title>SortByPipe </title>
<polygon fill="#fb8072" stroke="#000000" points="374.0582,-252 289.9418,-252 289.9418,-216 374.0582,-216 374.0582,-252"/>
<text text-anchor="middle" x="332" y="-229.8" font-family="Times,serif" font-size="14.00" fill="#000000">SortByPipe </text>
</g>
<!-- Vnas2UiCommonsModule&#45;&gt;SortByPipe  -->
<g id="edge28" class="edge">
<title>Vnas2UiCommonsModule&#45;&gt;SortByPipe </title>
<path fill="none" stroke="#000000" stroke-dasharray="5,2" d="M1209.4972,-174C981.6004,-174 365.8582,-174 365.8582,-174 365.8582,-174 365.8582,-205.998 365.8582,-205.998"/>
<polygon fill="#000000" stroke="#000000" points="362.3583,-205.998 365.8582,-215.998 369.3583,-205.9981 362.3583,-205.998"/>
</g>
<!-- TreeCategoryVerticalComponent  -->
<g id="node30" class="node">
<title>TreeCategoryVerticalComponent </title>
<polygon fill="#fb8072" stroke="#000000" points="272.3746,-252 65.6254,-252 65.6254,-216 272.3746,-216 272.3746,-252"/>
<text text-anchor="middle" x="169" y="-229.8" font-family="Times,serif" font-size="14.00" fill="#000000">TreeCategoryVerticalComponent </text>
</g>
<!-- Vnas2UiCommonsModule&#45;&gt;TreeCategoryVerticalComponent  -->
<g id="edge29" class="edge">
<title>Vnas2UiCommonsModule&#45;&gt;TreeCategoryVerticalComponent </title>
<path fill="none" stroke="#000000" stroke-dasharray="5,2" d="M1209.182,-171C955.5194,-171 213.375,-171 213.375,-171 213.375,-171 213.375,-205.7778 213.375,-205.7778"/>
<polygon fill="#000000" stroke="#000000" points="209.8751,-205.7778 213.375,-215.7778 216.8751,-205.7778 209.8751,-205.7778"/>
</g>
<!-- MaterialModule -->
<g id="node16" class="node">
<title>MaterialModule</title>
<polygon fill="#8dd3c7" stroke="#000000" points="130.4706,-122 127.4706,-126 106.4706,-126 103.4706,-122 23.5294,-122 23.5294,-86 130.4706,-86 130.4706,-122"/>
<text text-anchor="middle" x="77" y="-99.8" font-family="Times,serif" font-size="14.00" fill="#000000">MaterialModule</text>
</g>
<!-- MaterialModule&#45;&gt;Vnas2UiCommonsModule -->
<g id="edge15" class="edge">
<title>MaterialModule&#45;&gt;Vnas2UiCommonsModule</title>
<path fill="none" stroke="#000000" d="M98.024,-122.1686C98.024,-141.0898 98.024,-168 98.024,-168 98.024,-168 1199.4466,-168 1199.4466,-168"/>
<polygon fill="#000000" stroke="#000000" points="1199.4466,-171.5001 1209.4466,-168 1199.4465,-164.5001 1199.4466,-171.5001"/>
</g>
</g>
</svg>
