<?xml version="1.0" encoding="UTF-8" standalone="no"?>
<!DOCTYPE svg PUBLIC "-//W3C//DTD SVG 1.1//EN"
 "http://www.w3.org/Graphics/SVG/1.1/DTD/svg11.dtd">
<!-- Generated by graphviz version 2.40.1 (20161225.0304)
 -->
<!-- Title: dependencies Pages: 1 -->
<svg width="1533pt" height="211pt"
 viewBox="0.00 0.00 1533.00 211.00" xmlns="http://www.w3.org/2000/svg" xmlns:xlink="http://www.w3.org/1999/xlink">
<g id="graph0" class="graph" transform="scale(1 1) rotate(0) translate(4 207)">
<title>dependencies</title>
<polygon fill="#ffffff" stroke="transparent" points="-4,4 -4,-207 1529,-207 1529,4 -4,4"/>
<text text-anchor="start" x="741.5091" y="-42.4" font-family="sans-serif" font-weight="bold" font-size="14.00" fill="#000000">Legend</text>
<polygon fill="#ffffb3" stroke="transparent" points="528.5,-10 528.5,-30 548.5,-30 548.5,-10 528.5,-10"/>
<text text-anchor="start" x="552.129" y="-15.4" font-family="sans-serif" font-size="14.00" fill="#000000"> &#160;Declarations</text>
<polygon fill="#8dd3c7" stroke="transparent" points="641.5,-10 641.5,-30 661.5,-30 661.5,-10 641.5,-10"/>
<text text-anchor="start" x="665.2251" y="-15.4" font-family="sans-serif" font-size="14.00" fill="#000000"> &#160;Module</text>
<polygon fill="#80b1d3" stroke="transparent" points="727.5,-10 727.5,-30 747.5,-30 747.5,-10 727.5,-10"/>
<text text-anchor="start" x="751.2812" y="-15.4" font-family="sans-serif" font-size="14.00" fill="#000000"> &#160;Bootstrap</text>
<polygon fill="#fdb462" stroke="transparent" points="824.5,-10 824.5,-30 844.5,-30 844.5,-10 824.5,-10"/>
<text text-anchor="start" x="848.1732" y="-15.4" font-family="sans-serif" font-size="14.00" fill="#000000"> &#160;Providers</text>
<polygon fill="#fb8072" stroke="transparent" points="920.5,-10 920.5,-30 940.5,-30 940.5,-10 920.5,-10"/>
<text text-anchor="start" x="944.2258" y="-15.4" font-family="sans-serif" font-size="14.00" fill="#000000"> &#160;Exports</text>
<g id="clust1" class="cluster">
<title>cluster_Vnas2CoreModule</title>
<polygon fill="none" stroke="#000000" stroke-dasharray="1,5" points="8,-70 8,-195 1517,-195 1517,-70 8,-70"/>
</g>
<g id="clust3" class="cluster">
<title>cluster_Vnas2CoreModule_imports</title>
<polygon fill="none" stroke="#000000" points="1365,-78 1365,-130 1509,-130 1509,-78 1365,-78"/>
</g>
<g id="clust6" class="cluster">
<title>cluster_Vnas2CoreModule_providers</title>
<polygon fill="none" stroke="#000000" points="16,-78 16,-130 1357,-130 1357,-78 16,-78"/>
</g>
<!-- NotificationModule -->
<g id="node1" class="node">
<title>NotificationModule</title>
<polygon fill="#8dd3c7" stroke="#000000" points="1500.6994,-122 1497.6994,-126 1476.6994,-126 1473.6994,-122 1373.3006,-122 1373.3006,-86 1500.6994,-86 1500.6994,-122"/>
<text text-anchor="middle" x="1437" y="-99.8" font-family="Times,serif" font-size="14.00" fill="#000000">NotificationModule</text>
</g>
<!-- Vnas2CoreModule -->
<g id="node2" class="node">
<title>Vnas2CoreModule</title>
<polygon fill="#8dd3c7" stroke="#000000" points="809.0283,-187 806.0283,-191 785.0283,-191 782.0283,-187 686.9717,-187 686.9717,-151 809.0283,-151 809.0283,-187"/>
<text text-anchor="middle" x="748" y="-164.8" font-family="Times,serif" font-size="14.00" fill="#000000">Vnas2CoreModule</text>
</g>
<!-- NotificationModule&#45;&gt;Vnas2CoreModule -->
<g id="edge1" class="edge">
<title>NotificationModule&#45;&gt;Vnas2CoreModule</title>
<path fill="none" stroke="#000000" d="M1437,-122.2921C1437,-144.2057 1437,-178 1437,-178 1437,-178 819.1442,-178 819.1442,-178"/>
<polygon fill="#000000" stroke="#000000" points="819.1442,-174.5001 809.1442,-178 819.1441,-181.5001 819.1442,-174.5001"/>
</g>
<!-- ApiPrefixInterceptor -->
<g id="node3" class="node">
<title>ApiPrefixInterceptor</title>
<ellipse fill="#fdb462" stroke="#000000" cx="1258" cy="-104" rx="91.4481" ry="18"/>
<text text-anchor="middle" x="1258" y="-99.8" font-family="Times,serif" font-size="14.00" fill="#000000">ApiPrefixInterceptor</text>
</g>
<!-- ApiPrefixInterceptor&#45;&gt;Vnas2CoreModule -->
<g id="edge2" class="edge">
<title>ApiPrefixInterceptor&#45;&gt;Vnas2CoreModule</title>
<path fill="none" stroke="#000000" d="M1258,-122.1061C1258,-141.3391 1258,-169 1258,-169 1258,-169 819.2644,-169 819.2644,-169"/>
<polygon fill="#000000" stroke="#000000" points="819.2645,-165.5001 809.2644,-169 819.2644,-172.5001 819.2645,-165.5001"/>
</g>
<!-- AuthenticationService -->
<g id="node4" class="node">
<title>AuthenticationService</title>
<ellipse fill="#fdb462" stroke="#000000" cx="1051" cy="-104" rx="97.2683" ry="18"/>
<text text-anchor="middle" x="1051" y="-99.8" font-family="Times,serif" font-size="14.00" fill="#000000">AuthenticationService</text>
</g>
<!-- AuthenticationService&#45;&gt;Vnas2CoreModule -->
<g id="edge3" class="edge">
<title>AuthenticationService&#45;&gt;Vnas2CoreModule</title>
<path fill="none" stroke="#000000" d="M1051,-122.027C1051,-138.3976 1051,-160 1051,-160 1051,-160 819.3166,-160 819.3166,-160"/>
<polygon fill="#000000" stroke="#000000" points="819.3166,-156.5001 809.3166,-160 819.3165,-163.5001 819.3166,-156.5001"/>
</g>
<!-- CredentialsService -->
<g id="node5" class="node">
<title>CredentialsService</title>
<ellipse fill="#fdb462" stroke="#000000" cx="852" cy="-104" rx="83.9412" ry="18"/>
<text text-anchor="middle" x="852" y="-99.8" font-family="Times,serif" font-size="14.00" fill="#000000">CredentialsService</text>
</g>
<!-- CredentialsService&#45;&gt;Vnas2CoreModule -->
<g id="edge4" class="edge">
<title>CredentialsService&#45;&gt;Vnas2CoreModule</title>
<path fill="none" stroke="#000000" d="M788.6466,-115.922C788.6466,-115.922 788.6466,-140.7669 788.6466,-140.7669"/>
<polygon fill="#000000" stroke="#000000" points="785.1467,-140.7669 788.6466,-150.7669 792.1467,-140.7669 785.1467,-140.7669"/>
</g>
<!-- ErrorHandlerInterceptor -->
<g id="node6" class="node">
<title>ErrorHandlerInterceptor</title>
<ellipse fill="#fdb462" stroke="#000000" cx="645" cy="-104" rx="104.7327" ry="18"/>
<text text-anchor="middle" x="645" y="-99.8" font-family="Times,serif" font-size="14.00" fill="#000000">ErrorHandlerInterceptor</text>
</g>
<!-- ErrorHandlerInterceptor&#45;&gt;Vnas2CoreModule -->
<g id="edge5" class="edge">
<title>ErrorHandlerInterceptor&#45;&gt;Vnas2CoreModule</title>
<path fill="none" stroke="#000000" d="M718.3013,-117.1537C718.3013,-117.1537 718.3013,-140.6938 718.3013,-140.6938"/>
<polygon fill="#000000" stroke="#000000" points="714.8014,-140.6938 718.3013,-150.6938 721.8014,-140.6939 714.8014,-140.6938"/>
</g>
<!-- LoaderInterceptor -->
<g id="node7" class="node">
<title>LoaderInterceptor</title>
<ellipse fill="#fdb462" stroke="#000000" cx="441" cy="-104" rx="80.9775" ry="18"/>
<text text-anchor="middle" x="441" y="-99.8" font-family="Times,serif" font-size="14.00" fill="#000000">LoaderInterceptor</text>
</g>
<!-- LoaderInterceptor&#45;&gt;Vnas2CoreModule -->
<g id="edge6" class="edge">
<title>LoaderInterceptor&#45;&gt;Vnas2CoreModule</title>
<path fill="none" stroke="#000000" d="M441,-122.027C441,-138.3976 441,-160 441,-160 441,-160 676.6118,-160 676.6118,-160"/>
<polygon fill="#000000" stroke="#000000" points="676.6119,-163.5001 686.6118,-160 676.6118,-156.5001 676.6119,-163.5001"/>
</g>
<!-- LoadingService -->
<g id="node8" class="node">
<title>LoadingService</title>
<ellipse fill="#fdb462" stroke="#000000" cx="270" cy="-104" rx="72.3516" ry="18"/>
<text text-anchor="middle" x="270" y="-99.8" font-family="Times,serif" font-size="14.00" fill="#000000">LoadingService</text>
</g>
<!-- LoadingService&#45;&gt;Vnas2CoreModule -->
<g id="edge7" class="edge">
<title>LoadingService&#45;&gt;Vnas2CoreModule</title>
<path fill="none" stroke="#000000" d="M270,-122.1061C270,-141.3391 270,-169 270,-169 270,-169 676.4884,-169 676.4884,-169"/>
<polygon fill="#000000" stroke="#000000" points="676.4885,-172.5001 686.4884,-169 676.4884,-165.5001 676.4885,-172.5001"/>
</g>
<!-- TokenInterceptor -->
<g id="node9" class="node">
<title>TokenInterceptor</title>
<ellipse fill="#fdb462" stroke="#000000" cx="102" cy="-104" rx="78.1308" ry="18"/>
<text text-anchor="middle" x="102" y="-99.8" font-family="Times,serif" font-size="14.00" fill="#000000">TokenInterceptor</text>
</g>
<!-- TokenInterceptor&#45;&gt;Vnas2CoreModule -->
<g id="edge8" class="edge">
<title>TokenInterceptor&#45;&gt;Vnas2CoreModule</title>
<path fill="none" stroke="#000000" d="M102,-122.2921C102,-144.2057 102,-178 102,-178 102,-178 676.935,-178 676.935,-178"/>
<polygon fill="#000000" stroke="#000000" points="676.935,-181.5001 686.935,-178 676.9349,-174.5001 676.935,-181.5001"/>
</g>
</g>
</svg>
